<svg width="240" height="30" viewBox="0 0 240 30" fill="none" xmlns="http://www.w3.org/2000/svg">
<path fill-rule="evenodd" clip-rule="evenodd" d="M113.617 11.403C116.182 17.6537 120.054 23.6168 120.054 29.5275C120.054 23.6168 123.927 17.6537 126.517 11.403C123.927 7.8461 122.2 5.91073 120.054 0C117.909 5.91073 116.182 7.8461 113.617 11.403Z" fill="#4E4E4E"/>
<path fill-rule="evenodd" clip-rule="evenodd" d="M124.529 18.2292C123.142 22.3877 122.514 26.9907 120.002 29.8937C122.514 26.9907 126.962 25.683 130.887 23.6953C131.123 20.8446 131.097 19.1446 132.536 15.3262C128.977 17.34 127.302 17.5492 124.529 18.2292Z" fill="#4E4E4E"/>
<path fill-rule="evenodd" clip-rule="evenodd" d="M115.5 18.2292C116.861 22.3877 117.489 26.9907 120.001 29.8937C117.489 26.9907 113.04 25.683 109.141 23.6953C108.906 20.8446 108.932 19.1446 107.467 15.3262C111.025 17.34 112.7 17.5492 115.5 18.2292Z" fill="#4E4E4E"/>
<path fill-rule="evenodd" clip-rule="evenodd" d="M100.114 29.8933L87.4753 23.8779L0.130834 22.2825L0 22.1779V22.021L0.130834 21.8902L87.5015 20.2949L100.114 14.3057L96.3982 22.0995L100.114 29.8933Z" fill="#4E4E4E"/>
<path fill-rule="evenodd" clip-rule="evenodd" d="M139.912 29.8933L152.524 23.8779L239.869 22.2825L240 22.1779V22.021L239.869 21.8902L152.524 20.2949L139.912 14.3057L143.628 22.0995L139.912 29.8933Z" fill="#4E4E4E"/>
</svg>
