<?xml version="1.0" encoding="utf-8"?>
<svg width="100px" height="76px" viewBox="0 0 100 76" version="1.1" xmlns:xlink="http://www.w3.org/1999/xlink" xmlns="http://www.w3.org/2000/svg">
  <defs>
    <path d="M0 0L100 0L100 75.5814L0 75.5814L0 0Z" id="path_1" />
    <clipPath id="mask_1">
      <use xlink:href="#path_1" />
    </clipPath>
  </defs>
  <g id="iomoneye">
    <path d="M0 0L100 0L100 75.5814L0 75.5814L0 0Z" id="Background" fill="none" fill-rule="evenodd" stroke="none" />
    <g clip-path="url(#mask_1)">
      <g id="Group" transform="translate(6.0032654 5.7745285)">
        <path d="M23.8372 0.969654C10.1744 4.5743 0 17.5394 0 31.4348C0 45.0394 9.41861 57.5976 22.6163 61.6673C27.1512 63.1208 34.9419 63.179 39.8256 61.958C53.3139 58.4115 63.0233 45.7371 63.0233 31.7255C63.0233 22.5394 60 15.3883 53.5465 9.16733C45.4651 1.37663 34.186 -1.7629 23.8372 0.969654L23.8372 0.969654ZM38.3139 21.7836C41.686 24.1092 43.8953 28.7604 43.3721 32.4231C41.9767 42.5976 30.5814 46.8999 23.5465 39.9231C20.5233 36.8999 19.4767 34.0511 20 30.0394C20.407 26.2604 22.7326 22.9464 26.1628 21.0859C29.8256 19.1673 34.8837 19.458 38.3139 21.7836L38.3139 21.7836Z" transform="translate(25.392078 0)" id="Shape" fill="#FFFFFF" fill-rule="evenodd" stroke="none" />
        <path d="M0.0432441 0.98837C10.7409 35.2326 13.8805 45.0581 14.113 45.4651C14.2874 45.6977 16.7293 45.9302 19.6363 45.9302L24.8107 45.9302L24.8107 22.9651L24.8107 0L12.2525 0C0.624639 0 -0.247454 0.0581386 0.0432441 0.98837L0.0432441 0.98837Z" transform="translate(0 9.341747)" id="Shape" fill="#FFFFFF" fill-rule="evenodd" stroke="none" />
      </g>
    </g>
  </g>
</svg>