<svg width="10" height="91" viewBox="0 0 10 91" fill="none" xmlns="http://www.w3.org/2000/svg">
<path fill-rule="evenodd" clip-rule="evenodd" d="M0 90.8029L3.8526 80.6997L4.87437 10.7318L4.94137 10.627H5.04188L5.12563 10.7318L6.1474 80.6997L10 90.8029L4.99162 87.8474L0 90.8029Z" fill="#F1F1F1"/>
<path fill-rule="evenodd" clip-rule="evenodd" d="M3.18164 4.06644C3.91866 6.28831 5.00744 8.40538 5.00744 10.5015C5.00744 8.40538 6.11296 6.28831 6.84998 4.06644C6.11296 2.78782 5.6272 2.11707 5.00744 0C4.40442 2.11707 3.91866 2.78782 3.18164 4.06644Z" fill="#F1F1F1"/>
<path fill-rule="evenodd" clip-rule="evenodd" d="M6.28032 6.47729C5.89506 7.96553 5.71081 9.6005 4.99054 10.6276C4.28702 9.6005 3.01399 9.13936 1.90846 8.42668C1.84146 7.42054 1.85821 6.81267 1.43945 5.4502C2.44448 6.16287 2.93024 6.24672 3.71751 6.47729C4.10277 7.96553 4.28702 9.6005 4.99054 10.6276C5.71081 9.6005 6.96709 9.13936 8.08936 8.42668C8.15637 7.42054 8.13962 6.81267 8.55837 5.4502C7.5366 6.16287 7.06759 6.24672 6.28032 6.47729Z" fill="#F1F1F1"/>
</svg>
