<?xml version="1.0" encoding="utf-8"?>
<svg width="100px" height="100px" viewBox="0 0 100 100" version="1.1" xmlns:xlink="http://www.w3.org/1999/xlink" xmlns="http://www.w3.org/2000/svg">
  <defs>
    <path d="M0 0L100 0L100 100L0 100L0 0Z" id="path_1" />
    <clipPath id="mask_1">
      <use xlink:href="#path_1" />
    </clipPath>
  </defs>
  <g id="iconfinder_PayPal_alt_367638">
    <path d="M0 0L100 0L100 100L0 100L0 0Z" id="Background" fill="none" fill-rule="evenodd" stroke="none" />
    <g clip-path="url(#mask_1)">
      <path d="M78.6498 37.8152C75.5971 51.6734 64.1838 59.8281 50.5313 59.8281L36.2672 59.8281L31.3777 82.0313L11.4106 82.0313L13.2963 73.6432L19.9707 73.6432L25.2781 73.6432L26.4205 68.4619L30.1676 51.4402L39.124 51.4402C56.4801 51.4402 70.0469 40.7645 73.6898 24.249C73.9969 22.8486 74.2029 21.5186 74.3287 20.2379C78.2322 23.9785 80.4287 29.7682 78.6498 37.8152L78.6498 37.8152ZM14.7797 67.0371L8.01035 67.0371L0 67.0371L15.0809 0L49.1094 0C55.4088 0 62.3537 2.8502 65.7506 8.88574C66.9207 10.9682 67.6729 13.425 67.8299 16.282C67.94 18.2656 67.7654 20.4465 67.2399 22.8238C66.0482 28.2389 63.5662 32.7598 60.1883 36.2859C55.0248 41.6793 47.7428 44.6924 39.6277 44.8119C39.459 44.815 39.2932 44.8334 39.1242 44.8334L24.8572 44.8334L19.9707 67.0371L14.7797 67.0371L14.7797 67.0371ZM27.7104 31.9922L37.0815 31.9922C39.1607 31.9922 41.2309 31.307 43.0494 30.1647C43.7434 29.7193 44.4102 29.2186 45.0119 28.6502C46.6949 27.0688 47.9635 25.0445 48.4951 22.8238C49.4285 19.4914 48.3471 16.5982 46.1172 14.9979C44.9441 14.1565 43.4608 13.6586 41.7715 13.6586L31.992 13.6586L31.6785 14.9979L27.7104 31.9922L27.7104 31.9922Z" transform="translate(10.362503 8.984375)" id="Shape" fill="#FFFFFF" fill-rule="evenodd" stroke="none" />
    </g>
  </g>
</svg>