<svg width="11" height="9" viewBox="0 0 11 9" fill="none" xmlns="http://www.w3.org/2000/svg">
<path fill-rule="evenodd" clip-rule="evenodd" d="M6.64226 6.79297C4.39696 5.8723 2.25501 4.48191 0.131841 4.48191C2.25501 4.48191 4.39696 3.09152 6.64226 2.16146C7.91992 3.09152 8.61511 3.71156 10.7383 4.48191C8.61511 5.25226 7.91992 5.8723 6.64226 6.79297Z" fill="#FA8E41"/>
<path fill-rule="evenodd" clip-rule="evenodd" d="M4.18963 2.87474C2.69589 3.37265 1.04246 3.59812 -0.000339031 4.5C1.04246 3.59812 1.51218 2.00105 2.22617 0.59187C3.25017 0.507319 3.86082 0.516714 5.23242 1.38283e-05C4.50904 1.27767 4.43389 1.87892 4.18963 2.87474Z" fill="#FA8E41"/>
<path fill-rule="evenodd" clip-rule="evenodd" d="M4.18963 6.11588C2.69589 5.62736 1.04246 5.40189 -0.000339031 4.50001C1.04246 5.40189 1.51218 6.99896 2.22617 8.39875C3.25017 8.4833 3.86082 8.47391 5.23242 9C4.50904 7.72234 4.43389 7.12109 4.18963 6.11588Z" fill="#FA8E41"/>
</svg>
