<?xml version="1.0" encoding="utf-8"?>
<svg width="100px" height="100px" viewBox="0 0 100 100" version="1.1" xmlns:xlink="http://www.w3.org/1999/xlink" xmlns="http://www.w3.org/2000/svg">
  <defs>
    <path d="M0 0L100 0L100 100L0 100L0 0Z" id="path_1" />
    <clipPath id="mask_1">
      <use xlink:href="#path_1" />
    </clipPath>
  </defs>
  <g id="iconfinder_-69_3057653">
    <path d="M0 0L100 0L100 100L0 100L0 0Z" id="Background" fill="none" fill-rule="evenodd" stroke="none" />
    <g clip-path="url(#mask_1)">
      <g id="Layer_2" transform="translate(10.46875 37.1875)">
        <path d="M4.0625 0L0 24.6875L6.40625 24.6875L10.4688 0L4.0625 0L4.0625 0Z" transform="translate(27.812498 0.46874905)" id="Polygon" fill="#FFFFFF" fill-rule="evenodd" stroke="none" />
        <path d="M12.8125 0L12.8125 0C11.25 0 10.1563 0.468749 9.53125 2.03125L0 24.8438L6.71875 24.8438C6.71875 24.8438 7.8125 21.7188 8.125 21.0938C8.90625 21.0938 15.3125 21.0938 16.25 21.0938C16.4063 22.0312 17.0313 24.8438 17.0313 24.8438L22.9688 24.8438L17.8125 0L12.8125 0L12.8125 0ZM9.84375 15.9375C10.3125 14.5312 12.3438 9.0625 12.3438 9.0625C12.3438 9.0625 12.8125 7.65625 13.125 6.71875L13.125 6.71875L13.5938 8.90625C13.5938 8.90625 14.8437 14.8437 15.1563 16.0937L9.84375 16.0937L9.84375 15.9375Z" transform="translate(56.093746 0.46874905)" id="Shape" fill="#FFFFFF" fill-rule="evenodd" stroke="none" />
        <path d="M12.9688 10.4687C10.7813 9.375 9.37502 8.59375 9.37502 7.34375C9.37502 6.25 10.4688 5.15625 12.9688 5.15625C15 5.15625 16.5625 5.625 17.8125 6.09375L18.4375 6.40625L19.375 1.09375C18.125 0.625002 16.0938 0 13.5938 0L13.5938 0C7.34376 0 2.81251 3.4375 2.81251 8.125C2.81251 11.7187 5.93751 13.75 8.43751 14.8437C10.9375 16.0937 11.7188 16.875 11.7188 17.9687C11.7188 19.6875 9.6875 20.3125 7.8125 20.3125C5.31251 20.3125 3.90625 20 1.71875 19.0625L0.937501 18.5938L0 24.0625C1.5625 24.6875 4.21875 25.3125 7.1875 25.3125C13.9063 25.3125 18.2812 22.0313 18.2812 16.875C18.4375 14.375 16.7188 12.1875 12.9688 10.4687L12.9688 10.4687Z" transform="translate(38.12499 0)" id="Shape" fill="#FFFFFF" fill-rule="evenodd" stroke="none" />
        <path d="M22.5 0L22.5 0L16.25 16.875L15.625 13.4375C15.625 13.4375 15.625 13.4375 15.625 13.4375L13.4375 2.03125C13.125 0.468752 11.875 2.98023e-06 10.4688 2.98023e-06L0.3125 2.98023e-06C0.15625 2.98023e-06 0.15625 0.156254 0 0.156254C0 0.312504 0 0.468755 0.15625 0.468755C1.71875 0.937504 3.125 1.40626 4.375 2.03126C5.78125 2.65625 6.71875 3.90626 7.1875 5.31251L12.3437 24.6875L19.0625 24.6875L29.0625 2.98023e-06L22.5 2.98023e-06L22.5 0Z" transform="translate(0 0.46874905)" id="Shape" fill="#FFFFFF" fill-rule="evenodd" stroke="none" />
      </g>
    </g>
  </g>
</svg>