<?xml version="1.0" encoding="utf-8"?>
<svg width="100px" height="100px" viewBox="0 0 100 100" version="1.1" xmlns:xlink="http://www.w3.org/1999/xlink" xmlns="http://www.w3.org/2000/svg">
  <defs>
    <path d="M0 0L100 0L100 100L0 100L0 0Z" id="path_1" />
    <clipPath id="mask_1">
      <use xlink:href="#path_1" />
    </clipPath>
  </defs>
  <g id="iconfinder_Qiwi_onlyne_payments_pay_online_send_money_credit_card_card_ecommerce_2327531">
    <path d="M0 0L100 0L100 100L0 100L0 0Z" id="Background" fill="none" fill-rule="evenodd" stroke="none" />
    <g clip-path="url(#mask_1)">
      <g id="Group" transform="translate(3.6239624E-05 -3.4332275E-05)">
        <g id="Group">
          <path d="M82.9395 72.0839C82.0605 68.0117 80.176 64.9473 77.5376 62.6325C76.627 61.6715 75.5254 60.992 74.275 60.27C73.6463 59.9062 73.1865 59.6833 72.3643 59.3716C70.9948 58.851 69.1971 58.2459 66.9624 58.4719C68.0823 57.9048 69.7496 57.8813 71.4641 57.9075C72.887 58.0603 74.0657 58.4543 75.2864 58.8072C76.3082 59.3624 77.3197 59.9263 78.3257 60.4955C80.7916 53.1229 79.8468 43.0345 77.0893 36.5323C74.4212 29.7118 70.5456 24.0975 65.5027 19.6566C60.5438 15.1268 54.5867 11.5936 46.7137 9.9811C42.817 9.13957 37.9142 9.27488 34.3362 10.094C30.5985 11.0787 27.4904 12.6965 24.7746 14.7061C22.2504 16.9439 19.8004 19.2586 18.1358 22.3563C17.5359 22.9574 17.2785 23.901 16.7846 24.6072C16.4396 25.4604 16.0521 26.2731 15.662 27.0814C15.0805 28.8624 14.4142 30.5586 14.085 32.5945C13.1852 36.2775 13.0232 41.3384 13.6366 45.3081C14.0985 49.5713 15.3486 53.0459 16.676 56.4451C17.4935 58.0271 18.2395 59.6807 19.1471 61.1698C20.0096 62.6724 21.077 63.9666 22.0749 65.3335C24.342 67.7915 26.7763 70.0808 29.6112 71.9723C35.3582 75.7153 41.9544 78.6045 50.9878 79.0585C51.1655 78.6908 50.7435 77.9569 50.6506 77.4841C50.5149 76.943 50.4623 76.3217 50.3109 75.7976C50.183 74.5857 50.1437 73.1724 50.3109 71.9723C50.669 72.0651 50.6585 72.5244 50.8757 72.7595C51.0674 72.9798 51.1392 73.3208 51.4387 73.4338C51.6646 74.0682 52.1559 74.4395 52.4501 75.009C53.2995 75.8852 53.9606 76.9482 55.0385 77.5958C55.8958 78.4653 57.042 79.041 58.0754 79.7342C59.19 80.3086 60.1454 81.0402 61.4519 81.4211C63.6866 82.5971 66.6831 83.0121 69.6647 83.4465C72.669 83.8536 75.5683 84.3659 78.3257 85.0217C80.866 85.8939 83.4545 86.7162 85.5272 88.0568C86.6208 88.689 87.6988 89.3362 88.676 90.0848C89.1532 90.4675 89.7566 90.7275 90.1384 91.2083C90.7303 91.4438 90.9904 92.0069 91.6007 92.2197C93.3477 93.8861 95.0727 95.5743 96.5543 97.5069C97.1646 98.6216 97.9983 99.5113 98.4659 100.772C98.8766 101.223 98.9965 101.964 99.3652 102.458C99.3888 103.097 100.008 103.864 99.4764 104.371C98.641 104.494 98.8108 103.612 98.4659 103.246C98.1944 102.805 97.8573 102.425 97.6743 101.897C96.3582 100.515 95.1795 98.9938 93.7382 97.7355C92.3127 96.4982 90.9107 95.2346 89.2382 94.2477C86.0955 92.0253 82.4536 90.3081 78.2119 89.1829C74.0368 87.9745 69.3538 87.4894 63.9256 87.8344C61.5421 88.147 59.2671 88.5779 57.2864 89.2941C55.155 89.8248 52.7819 90.1146 50.4247 90.4194C41.2163 90.9877 30.9624 88.7897 24.0977 85.4719C20.4343 83.7753 17.0635 81.7819 14.1992 79.284C12.6331 78.1518 11.3538 76.728 10.0368 75.3462C8.83189 73.8874 7.56571 72.4898 6.66069 70.7328C5.45799 69.2355 4.74648 67.2459 3.73512 65.5577C3.07705 63.555 2.14541 61.823 1.71017 59.5958C1.02233 57.5853 0.600264 55.3064 0.361659 52.8454C0.321851 52.1685 0.0188634 50.8642 0.0219098 49.8073C0.0219098 49.7131 0.14359 49.6294 0.135697 49.4701C0.0853951 48.5108 -0.14272 47.0323 0.135697 46.2078C0.0853951 43.9784 0.486027 41.2363 0.924232 39.1194C1.32747 36.8615 1.92779 34.7989 2.61258 32.8186C3.2815 30.7906 4.16812 28.9767 4.97244 27.0814C5.51403 26.2718 5.92516 25.3344 6.43473 24.4946C6.86469 23.612 7.51011 22.9455 7.90016 22.0191C8.33273 21.7761 8.40984 21.1803 8.79729 20.8948C8.97241 20.3931 9.43958 20.1846 9.58582 19.6566C9.95444 19.3502 10.2469 18.9666 10.4855 18.531C10.828 18.1978 11.1866 17.8808 11.3853 17.4057C12.726 16.0839 13.9256 14.6199 15.3223 13.3563C16.7154 12.0489 18.2737 10.9075 19.7128 9.64395C20.6257 9.2087 21.2842 8.51692 22.1865 8.06859C22.8713 7.44208 23.8695 7.12511 24.549 6.49286C26.4256 5.66891 28.0237 4.56735 30.0621 3.90489C31.8196 2.99987 33.9247 2.4425 35.9128 1.7683C40.2317 0.6601 44.5902 -0.101715 49.9737 0.0800412C50.1672 0.103624 50.2653 -0.111308 50.3109 0.0800412C60.5061 0.38778 67.9361 3.45915 74.275 7.61855C80.556 11.8006 85.4186 17.4005 88.9011 24.3817C92.3074 31.2967 94.2233 40.6947 92.6147 50.5958C91.8083 55.0406 90.507 58.988 88.9011 62.6325C87.9807 64.3392 87.1603 66.143 86.0876 67.6961C85.6183 68.5349 85.1139 69.3458 84.5131 70.0585C84.3117 70.4924 84.0254 70.844 83.7277 71.1837C83.5955 71.3895 83.4308 71.5634 83.2767 71.7469C83.2259 71.8462 83.1787 71.9483 83.0508 71.9723C83.0832 72.1728 82.9474 72.2022 82.9395 72.0839L82.9395 72.0839Z" id="Shape" fill="#FFFFFF" fill-rule="evenodd" stroke="none" />
          <path d="M7.57836 9.50718C3.14676 8.54796 2.4 5.56108 0.394514 3.267C0.0355936 2.42515 -0.276041 1.15907 0.394514 0.354372C0.69744 0.314744 0.767927 0.145655 1.15005 0.145655C2.26478 -0.249418 3.32622 0.250759 4.92306 0.562419C7.09625 1.93212 8.4781 3.73814 9.46035 5.7625C9.53985 7.39944 9.76331 9.11942 7.57836 9.50718L7.57836 9.50718Z" transform="translate(77.10228 69.86686)" id="Shape" fill="#FFFFFF" fill-rule="evenodd" stroke="none" />
          <path d="M4.0217 0.118344C4.05839 -0.0881399 4.21997 0.0179102 4.21997 0.118344C7.69139 0.525115 9.28613 2.66733 9.50718 6.07562C9.1976 7.95983 8.05123 9.06993 6.1744 9.5062C1.49854 9.57857 -1.16342 5.61114 0.495313 1.56212C1.42843 0.859662 2.09006 -0.0944689 4.0217 0.118344L4.0217 0.118344Z" transform="translate(67.148 73.02289)" id="Shape" fill="#FFFFFF" fill-rule="evenodd" stroke="none" />
        </g>
      </g>
    </g>
  </g>
</svg>