<svg width="24" height="24" viewBox="0 0 24 24" fill="none" xmlns="http://www.w3.org/2000/svg">
<g clip-path="url(#clip0)">
<path d="M18.75 24H5.25C2.3505 24 0 21.6495 0 18.75V5.25C0 2.3505 2.3505 0 5.25 0H18.75C21.6495 0 24 2.3505 24 5.25V18.75C24 21.6495 21.6495 24 18.75 24Z" fill="#41479B"/>
<path d="M23.9998 18.7493V17.5968L20.277 15.1577H23.9998V13.8945H13.8945V23.9998H15.1577V16.3339L23.1701 21.5834C23.4539 21.1416 23.673 20.6543 23.8146 20.1351" fill="#F5F5F5"/>
<path d="M0.353016 20.6456C0.480891 20.9756 0.640922 21.2895 0.829641 21.5834L8.84208 16.3339V23.9998H10.1052V13.8945H0V15.1577H3.72277L0 17.5968V18.7498C0 18.9516 0.0118125 19.1507 0.0339844 19.3467" fill="#F5F5F5"/>
<path d="M0 5.42845V6.40303L3.72277 8.84212H0V10.1053H10.1053V0H8.84212V7.66594L0.829641 2.41641C0.51825 2.90123 0.284672 3.44072 0.145969 4.01719" fill="#F5F5F5"/>
<path d="M23.6398 3.33605C23.5132 3.01266 23.3554 2.70483 23.1701 2.41636L15.1577 7.66594V0H13.8945V10.1053H23.9998V8.84212H20.277L23.9998 6.40303V5.25C23.9998 5.04094 23.9872 4.83478 23.9634 4.63209" fill="#F5F5F5"/>
<path d="M13.8947 0H10.1053V10.1053H0V13.8947H10.1053V24H13.8947V13.8947H24V10.1053H13.8947V0Z" fill="#FF4B55"/>
<path d="M6.48844 15.1582L0.0351562 19.3472C0.0864375 19.8001 0.195188 20.2356 0.354234 20.6461L8.80856 15.1582H6.48844V15.1582Z" fill="#FF4B55"/>
<path d="M16.1465 15.1582L23.8146 20.1357C23.935 19.6943 23.9997 19.2299 23.9997 18.7503V18.7498L18.4666 15.1582L16.1465 15.1582Z" fill="#FF4B55"/>
<path d="M7.57894 8.84252L0.145969 4.01758C0.0507656 4.41302 0 4.82575 0 5.25039V5.42884L5.25881 8.84252H7.57894Z" fill="#FF4B55"/>
<path d="M17.4783 8.84197L23.9639 4.63194C23.9109 4.17988 23.8007 3.74534 23.6404 3.33594L15.1582 8.84197H17.4783Z" fill="#FF4B55"/>
</g>
<defs>
<clipPath id="clip0">
<rect width="24" height="24" fill="white"/>
</clipPath>
</defs>
</svg>
