<svg width="159" height="33" viewBox="0 0 159 33" fill="none" xmlns="http://www.w3.org/2000/svg">
<path d="M9.96 16.64C10.36 16.64 10.7467 16.8 11.12 17.12C11.4133 17.4133 11.56 17.7867 11.56 18.24C11.56 18.6933 11.4133 19.08 11.12 19.4C10.8 19.72 10.4133 19.88 9.96 19.88C9.53333 19.88 9.16 19.72 8.84 19.4C8.52 19.08 8.36 18.6933 8.36 18.24C8.36 17.8133 8.52 17.44 8.84 17.12C9.10667 16.8 9.48 16.64 9.96 16.64ZM17.04 18.24C17.04 17.0133 16.7467 15.8667 16.16 14.8C15.5733 13.68 14.72 12.8267 13.6 12.24C12.48 11.6 11.3067 11.28 10.08 11.28C8.8 11.28 7.58667 11.6 6.44 12.24C5.26667 12.9067 4.37333 13.7733 3.76 14.84C3.14667 15.88 2.84 17.0267 2.84 18.28C2.84 19.48 3.16 20.6533 3.8 21.8C4.38667 22.92 5.25333 23.8 6.4 24.44C7.44 25.0533 8.6 25.36 9.88 25.36C11.8267 25.36 13.5067 24.6667 14.92 23.28C16.3333 21.8667 17.04 20.1867 17.04 18.24ZM17.16 23.96C15.2933 26.28 12.8933 27.4667 9.96 27.52C8.28 27.52 6.73333 27.1067 5.32 26.28C3.88 25.48 2.74667 24.3333 1.92 22.84C1.09333 21.4267 0.68 19.8933 0.68 18.24C0.68 17.4667 0.773333 16.7067 0.96 15.96C1.14667 15.2133 1.45333 14.4667 1.88 13.72C2.65333 12.3333 3.78667 11.2 5.28 10.32C6 9.92 6.73333 9.62667 7.48 9.44C8.25333 9.25333 9.05333 9.14667 9.88 9.12C11.1867 9.12 12.52 9.42667 13.88 10.04C15.1333 10.6 16.2267 11.44 17.16 12.56V8.76C18.3867 9.53333 19.8133 9.96 21.44 10.04C20.5867 10.4667 20.0533 10.7867 19.84 11C19.7067 11.1067 19.5867 11.2267 19.48 11.36C19.4 11.4933 19.32 11.6533 19.24 11.84C19.1333 12.1333 19.08 12.6933 19.08 13.52V22.56C19.08 23.9467 19.2933 24.9467 19.72 25.56C20.12 26.1733 20.84 26.6533 21.88 27H17.16V23.96ZM27.9288 22.52C27.4754 22.6 27.0888 22.8533 26.7688 23.28C26.4488 23.68 26.2888 24.1467 26.2888 24.68C26.2621 25.4267 26.5688 26.1067 27.2088 26.72C27.8221 27.2533 28.5954 27.52 29.5288 27.52C30.4621 27.52 31.3154 27.16 32.0888 26.44C32.8088 25.7733 33.1688 24.92 33.1688 23.88C33.1688 22.68 32.6888 21.6 31.7288 20.64C30.7421 19.7067 29.5554 19.24 28.1688 19.24C26.6754 19.24 25.4488 19.72 24.4888 20.68C23.5021 21.6667 23.0088 22.88 23.0088 24.32C22.9821 25.1733 23.1154 25.9467 23.4088 26.64C23.7288 27.3067 24.1821 27.92 24.7688 28.48C25.9154 29.5733 27.4354 30.1333 29.3288 30.16C30.5021 30.16 31.6488 29.8933 32.7688 29.36C33.8354 28.8267 34.6221 28.1067 35.1288 27.2C35.6888 26.2933 35.9688 25.32 35.9688 24.28C35.9688 23.9067 35.9154 23.5467 35.8088 23.2C35.7288 22.8533 35.6221 22.4933 35.4888 22.12C35.2221 21.48 34.8488 20.88 34.3688 20.32C34.1288 20.0533 33.8088 19.7867 33.4088 19.52C33.0088 19.2267 32.5288 18.8933 31.9688 18.52C31.6221 18.3067 31.1554 18.04 30.5688 17.72C30.0088 17.3733 29.3288 16.9867 28.5288 16.56C26.9288 15.7067 25.9021 15.0133 25.4488 14.48C24.9954 13.8667 24.7688 13.2133 24.7688 12.52C24.7421 11.64 25.1688 10.8 26.0488 10C26.9021 9.25333 28.0088 8.88 29.3688 8.88C30.5954 8.88 31.7154 9.2 32.7288 9.84C33.7954 10.5333 34.5421 11.44 34.9688 12.56C34.0888 12.8533 33.4088 13.4133 32.9288 14.24C32.8221 13.68 32.6621 13.2 32.4488 12.8C32.2354 12.4 31.9688 12.0533 31.6488 11.76C31.0088 11.2 30.2888 10.9067 29.4888 10.88C28.7421 10.88 28.1954 11.0533 27.8487 11.4C27.4754 11.72 27.2888 12.12 27.2888 12.6C27.2888 13.0267 27.4354 13.3867 27.7288 13.68C27.9954 14 28.7954 14.52 30.1288 15.24C32.5288 16.4667 34.1688 17.4133 35.0488 18.08C35.8488 18.64 36.5554 19.48 37.1688 20.6C37.7021 21.6133 37.9688 22.7467 37.9688 24C37.9688 26.08 37.2088 27.8533 35.6888 29.32C34.1688 30.76 32.1954 31.4933 29.7688 31.52C27.5821 31.52 25.7421 30.8533 24.2488 29.52C22.8621 28.2133 22.1421 26.5867 22.0888 24.64C22.0888 22.9333 22.6621 21.5067 23.8088 20.36C24.9288 19.24 26.3288 18.68 28.0088 18.68C29.0221 18.68 29.9954 18.92 30.9288 19.4C31.8088 19.88 32.4888 20.5333 32.9688 21.36C33.4754 22.1867 33.7287 23.0133 33.7287 23.84C33.7554 24.96 33.3421 25.9467 32.4888 26.8C31.6621 27.6267 30.6621 28.04 29.4888 28.04C28.3688 28.04 27.4754 27.7067 26.8088 27.04C26.0888 26.3733 25.7288 25.6 25.7288 24.72C25.7288 24 25.9954 23.3333 26.5288 22.72C27.0888 22.16 27.7821 21.88 28.6088 21.88C29.2754 21.88 29.7821 22.0533 30.1288 22.4C30.4754 22.7733 30.6621 23.2 30.6888 23.68C30.6888 24.1067 30.5288 24.4933 30.2088 24.84C29.8354 25.1333 29.4488 25.28 29.0488 25.28C28.5421 25.28 28.1421 25.1333 27.8487 24.84C27.5288 24.52 27.3688 24.1467 27.3688 23.72C27.3688 23.24 27.5554 22.84 27.9288 22.52ZM38.2978 27C39.6045 26.44 40.4578 25.88 40.8578 25.32C41.1511 24.9467 41.2978 24.2133 41.2978 23.12V14.32C41.2978 13.3067 41.2178 12.56 41.0578 12.08C40.9778 11.8667 40.8845 11.6667 40.7778 11.48C40.6711 11.2933 40.5245 11.1333 40.3378 11C40.1778 10.84 39.9378 10.6533 39.6178 10.44C39.2978 10.2267 38.8711 9.97333 38.3378 9.68C38.9511 9.68 39.5111 9.66667 40.0178 9.64C40.5511 9.61333 41.0045 9.57333 41.3778 9.52C41.9111 9.46667 42.4178 9.38667 42.8978 9.28C43.3778 9.14667 43.8445 9 44.2978 8.84C44.0845 9.26667 43.8978 9.65333 43.7378 10C43.5778 10.32 43.4578 10.6267 43.3778 10.92C43.2711 11.3733 43.2178 12.32 43.2178 13.76V21.64C43.2178 23.2133 43.4045 24.3733 43.7778 25.12C44.1511 25.84 44.8178 26.4667 45.7778 27H38.2978ZM43.8178 2.88C43.8178 3.57333 43.6445 4.09333 43.2978 4.44C42.9778 4.81333 42.6178 5 42.2178 5C41.7645 5 41.3511 4.81333 40.9778 4.44C40.6845 4.09333 40.5111 3.54667 40.4578 2.8C40.4578 2.16 40.6178 1.64 40.9378 1.24C41.2045 0.919999 41.5911 0.733332 42.0978 0.679998C42.5245 0.679998 42.9245 0.879999 43.2978 1.28C43.6178 1.68 43.7911 2.21333 43.8178 2.88ZM56.2619 18.24C56.2619 17.84 56.4085 17.4667 56.7019 17.12C57.0219 16.8 57.4085 16.64 57.8619 16.64C58.2885 16.64 58.6619 16.8 58.9819 17.12C59.2752 17.44 59.4485 17.8133 59.5019 18.24C59.5019 18.6667 59.3285 19.0533 58.9819 19.4C58.6885 19.72 58.3152 19.88 57.8619 19.88C57.4352 19.88 57.0485 19.72 56.7019 19.4C56.4085 19.0533 56.2619 18.6667 56.2619 18.24ZM70.9019 19.88C70.4752 19.88 70.1019 19.72 69.7819 19.4C69.5419 19.1067 69.3952 18.72 69.3419 18.24C69.3419 17.84 69.4885 17.4533 69.7819 17.08C70.1285 16.7867 70.5152 16.64 70.9419 16.64C71.3419 16.64 71.7285 16.8 72.1019 17.12C72.3952 17.44 72.5552 17.8133 72.5819 18.24C72.5819 18.6667 72.4219 19.0533 72.1019 19.4C71.7819 19.72 71.3819 19.88 70.9019 19.88ZM51.3419 12.08C51.8219 11.5733 52.3019 11.1333 52.7819 10.76C53.2619 10.36 53.7685 10.04 54.3019 9.8C54.8085 9.56 55.3285 9.38667 55.8619 9.28C56.3952 9.17333 56.9552 9.10667 57.5419 9.08C58.6352 9.08 59.6485 9.28 60.5819 9.68C61.0352 9.89333 61.4485 10.1333 61.8219 10.4C62.2219 10.64 62.5952 10.9467 62.9419 11.32C63.1819 11.5867 63.4352 11.9067 63.7019 12.28C63.9685 12.6267 64.2485 13.0667 64.5419 13.6C65.3152 12.08 66.3285 10.96 67.5819 10.24C68.8085 9.49333 70.1685 9.12 71.6619 9.12C73.6619 9.09333 75.4352 9.70667 76.9819 10.96C78.8752 12.5067 79.8219 14.5867 79.8219 17.2C79.8219 18.3467 79.5685 19.5067 79.0619 20.68C78.6085 21.8 77.5419 23.44 75.8619 25.6L79.9819 27H72.6619C74.8485 24.12 76.3285 21.88 77.1019 20.28C77.5019 19.4533 77.7019 18.5333 77.7019 17.52C77.7019 15.7067 77.1152 14.2133 75.9419 13.04C74.7419 11.8667 73.2885 11.2667 71.5819 11.24C70.6219 11.24 69.6752 11.4933 68.7419 12C68.2885 12.24 67.9019 12.4933 67.5819 12.76C67.2619 13.0267 66.9819 13.3467 66.7419 13.72C66.2885 14.4133 65.9685 15.2267 65.7819 16.16C65.7285 16.4 65.6885 16.72 65.6619 17.12C65.6352 17.52 65.6219 17.9867 65.6219 18.52V22.16C65.6219 23.2267 65.6752 23.9333 65.7819 24.28C65.8885 24.76 66.1152 25.2133 66.4619 25.64C66.9419 26.1733 67.6219 26.6267 68.5019 27H60.9019C62.0219 26.6 62.7552 26.1467 63.1019 25.64C63.4485 25.1333 63.6219 24.3067 63.6219 23.16V18.24C63.6219 16.0267 63.0219 14.28 61.8219 13C60.6485 11.7467 59.2219 11.12 57.5419 11.12C56.6619 11.0933 55.8619 11.2533 55.1419 11.6C54.4219 11.9467 53.7552 12.4533 53.1419 13.12C51.9685 14.4533 51.3819 16.4267 51.3819 19.04V22.56C51.3819 23.8133 51.5952 24.7467 52.0219 25.36C52.4752 25.9733 53.3285 26.52 54.5819 27H46.5019C47.7552 26.4133 48.5419 25.8667 48.8619 25.36C49.1819 24.88 49.3419 23.96 49.3419 22.6V14.6C49.3419 13.1867 49.1952 12.2133 48.9019 11.68C48.5819 11.12 47.8485 10.52 46.7019 9.88C48.1152 9.8 49.1019 9.72 49.6619 9.64C49.9552 9.58667 50.2352 9.54667 50.5019 9.52C50.7685 9.46667 51.0485 9.4 51.3419 9.32V12.08ZM92.2256 16.64C92.6256 16.64 93.0123 16.8 93.3856 17.12C93.679 17.4133 93.8256 17.7867 93.8256 18.24C93.8256 18.6933 93.679 19.08 93.3856 19.4C93.0656 19.72 92.679 19.88 92.2256 19.88C91.799 19.88 91.4256 19.72 91.1056 19.4C90.7856 19.08 90.6256 18.6933 90.6256 18.24C90.6256 17.8133 90.7856 17.44 91.1056 17.12C91.3723 16.8 91.7456 16.64 92.2256 16.64ZM99.3056 18.24C99.3056 17.0133 99.0123 15.8667 98.4256 14.8C97.839 13.68 96.9856 12.8267 95.8656 12.24C94.7456 11.6 93.5723 11.28 92.3456 11.28C91.0656 11.28 89.8523 11.6 88.7056 12.24C87.5323 12.9067 86.639 13.7733 86.0256 14.84C85.4123 15.88 85.1056 17.0267 85.1056 18.28C85.1056 19.48 85.4256 20.6533 86.0656 21.8C86.6523 22.92 87.519 23.8 88.6656 24.44C89.7056 25.0533 90.8656 25.36 92.1456 25.36C94.0923 25.36 95.7723 24.6667 97.1856 23.28C98.599 21.8667 99.3056 20.1867 99.3056 18.24ZM99.4256 23.96C97.559 26.28 95.159 27.4667 92.2256 27.52C90.5456 27.52 88.999 27.1067 87.5856 26.28C86.1456 25.48 85.0123 24.3333 84.1856 22.84C83.359 21.4267 82.9456 19.8933 82.9456 18.24C82.9456 17.4667 83.039 16.7067 83.2256 15.96C83.4123 15.2133 83.719 14.4667 84.1456 13.72C84.919 12.3333 86.0523 11.2 87.5456 10.32C88.2656 9.92 88.999 9.62667 89.7456 9.44C90.519 9.25333 91.319 9.14667 92.1456 9.12C93.4523 9.12 94.7856 9.42667 96.1456 10.04C97.399 10.6 98.4923 11.44 99.4256 12.56V8.76C100.652 9.53333 102.079 9.96 103.706 10.04C102.852 10.4667 102.319 10.7867 102.106 11C101.972 11.1067 101.852 11.2267 101.746 11.36C101.666 11.4933 101.586 11.6533 101.506 11.84C101.399 12.1333 101.346 12.6933 101.346 13.52V22.56C101.346 23.9467 101.559 24.9467 101.986 25.56C102.386 26.1733 103.106 26.6533 104.146 27H99.4256V23.96ZM109.874 25.2C109.874 25.8133 109.701 26.3333 109.354 26.76C109.061 27.1333 108.714 27.32 108.314 27.32C107.914 27.32 107.554 27.1467 107.234 26.8C106.914 26.4 106.754 25.9067 106.754 25.32C106.754 24.7067 106.928 24.2133 107.274 23.84C107.594 23.44 107.968 23.24 108.394 23.24C108.741 23.24 109.088 23.4133 109.434 23.76C109.728 24.1333 109.874 24.6133 109.874 25.2ZM119.878 9.6C119.345 9.81333 118.905 10.04 118.558 10.28C118.212 10.4933 117.932 10.7333 117.718 11C117.318 11.5333 117.118 12.1467 117.118 12.84C117.118 13.96 117.438 15.84 118.078 18.48C118.665 21.0933 119.505 23.04 120.598 24.32C121.185 25.04 121.798 25.4 122.438 25.4C122.945 25.4 123.385 25.2 123.758 24.8C124.372 24.1333 124.985 22.76 125.598 20.68C126.158 18.6533 126.438 16.4533 126.438 14.08C126.438 12.6667 126.252 11.68 125.878 11.12C125.585 10.56 124.918 10.0533 123.878 9.6H130.558C129.598 10.0533 128.972 10.5067 128.678 10.96C128.385 11.4133 128.238 12.12 128.238 13.08C128.238 14.5467 128.358 16.0933 128.598 17.72C128.732 18.5467 128.878 19.32 129.038 20.04C129.225 20.76 129.452 21.44 129.718 22.08C130.038 22.96 130.358 23.64 130.678 24.12C130.945 24.4933 131.252 24.8133 131.598 25.08C131.892 25.2667 132.212 25.36 132.558 25.36C132.745 25.36 132.918 25.3467 133.078 25.32C133.238 25.2933 133.412 25.2267 133.598 25.12C133.892 24.9333 134.252 24.52 134.678 23.88C134.892 23.56 135.092 23.1467 135.278 22.64C135.492 22.1333 135.718 21.52 135.958 20.8C136.172 20.1067 136.372 19.3467 136.558 18.52C136.745 17.6667 136.918 16.7467 137.078 15.76C137.212 15.04 137.292 14.4133 137.318 13.88C137.372 13.32 137.398 12.8533 137.398 12.48C137.398 11.8667 137.225 11.3467 136.878 10.92C136.585 10.4933 135.972 10.0533 135.038 9.6H141.598C140.772 10.08 140.198 10.6 139.878 11.16C139.558 11.6933 139.278 12.7067 139.038 14.2C138.585 16.9733 138.105 19.2133 137.598 20.92C137.118 22.5733 136.572 23.92 135.958 24.96C135.398 25.92 134.825 26.6 134.238 27C133.705 27.3467 133.158 27.52 132.598 27.52C131.692 27.52 130.865 27.12 130.118 26.32C129.585 25.7867 129.105 25.0267 128.678 24.04C128.252 23.0533 127.838 21.8133 127.438 20.32C126.878 23.0133 126.025 25.0267 124.878 26.36C124.212 27.08 123.385 27.4667 122.398 27.52C121.892 27.52 121.398 27.4 120.918 27.16C120.492 26.9733 120.025 26.6 119.518 26.04C119.038 25.5333 118.518 24.6933 117.958 23.52C117.665 22.9067 117.385 22.2 117.118 21.4C116.852 20.6 116.585 19.6933 116.318 18.68C116.185 18.12 116.038 17.44 115.878 16.64C115.745 15.84 115.598 14.92 115.438 13.88C115.252 12.44 114.998 11.48 114.678 11C114.332 10.52 113.678 10.0533 112.718 9.6H119.878ZM148.007 22.52C147.554 22.6 147.167 22.8533 146.847 23.28C146.527 23.68 146.367 24.1467 146.367 24.68C146.34 25.4267 146.647 26.1067 147.287 26.72C147.9 27.2533 148.674 27.52 149.607 27.52C150.54 27.52 151.394 27.16 152.167 26.44C152.887 25.7733 153.247 24.92 153.247 23.88C153.247 22.68 152.767 21.6 151.807 20.64C150.82 19.7067 149.634 19.24 148.247 19.24C146.754 19.24 145.527 19.72 144.567 20.68C143.58 21.6667 143.087 22.88 143.087 24.32C143.06 25.1733 143.194 25.9467 143.487 26.64C143.807 27.3067 144.26 27.92 144.847 28.48C145.994 29.5733 147.514 30.1333 149.407 30.16C150.58 30.16 151.727 29.8933 152.847 29.36C153.914 28.8267 154.7 28.1067 155.207 27.2C155.767 26.2933 156.047 25.32 156.047 24.28C156.047 23.9067 155.994 23.5467 155.887 23.2C155.807 22.8533 155.7 22.4933 155.567 22.12C155.3 21.48 154.927 20.88 154.447 20.32C154.207 20.0533 153.887 19.7867 153.487 19.52C153.087 19.2267 152.607 18.8933 152.047 18.52C151.7 18.3067 151.234 18.04 150.647 17.72C150.087 17.3733 149.407 16.9867 148.607 16.56C147.007 15.7067 145.98 15.0133 145.527 14.48C145.074 13.8667 144.847 13.2133 144.847 12.52C144.82 11.64 145.247 10.8 146.127 10C146.98 9.25333 148.087 8.88 149.447 8.88C150.674 8.88 151.794 9.2 152.807 9.84C153.874 10.5333 154.62 11.44 155.047 12.56C154.167 12.8533 153.487 13.4133 153.007 14.24C152.9 13.68 152.74 13.2 152.527 12.8C152.314 12.4 152.047 12.0533 151.727 11.76C151.087 11.2 150.367 10.9067 149.567 10.88C148.82 10.88 148.274 11.0533 147.927 11.4C147.554 11.72 147.367 12.12 147.367 12.6C147.367 13.0267 147.514 13.3867 147.807 13.68C148.074 14 148.874 14.52 150.207 15.24C152.607 16.4667 154.247 17.4133 155.127 18.08C155.927 18.64 156.634 19.48 157.247 20.6C157.78 21.6133 158.047 22.7467 158.047 24C158.047 26.08 157.287 27.8533 155.767 29.32C154.247 30.76 152.274 31.4933 149.847 31.52C147.66 31.52 145.82 30.8533 144.327 29.52C142.94 28.2133 142.22 26.5867 142.167 24.64C142.167 22.9333 142.74 21.5067 143.887 20.36C145.007 19.24 146.407 18.68 148.087 18.68C149.1 18.68 150.074 18.92 151.007 19.4C151.887 19.88 152.567 20.5333 153.047 21.36C153.554 22.1867 153.807 23.0133 153.807 23.84C153.834 24.96 153.42 25.9467 152.567 26.8C151.74 27.6267 150.74 28.04 149.567 28.04C148.447 28.04 147.554 27.7067 146.887 27.04C146.167 26.3733 145.807 25.6 145.807 24.72C145.807 24 146.074 23.3333 146.607 22.72C147.167 22.16 147.86 21.88 148.687 21.88C149.354 21.88 149.86 22.0533 150.207 22.4C150.554 22.7733 150.74 23.2 150.767 23.68C150.767 24.1067 150.607 24.4933 150.287 24.84C149.914 25.1333 149.527 25.28 149.127 25.28C148.62 25.28 148.22 25.1333 147.927 24.84C147.607 24.52 147.447 24.1467 147.447 23.72C147.447 23.24 147.634 22.84 148.007 22.52Z" fill="#F1F1F1"/>
<path d="M11.12 17.12L11.4736 16.7664L11.46 16.7529L11.4454 16.7404L11.12 17.12ZM11.12 19.4L11.4736 19.7536L11.4812 19.7459L11.4886 19.7379L11.12 19.4ZM8.84 19.4L9.19355 19.0464L8.84 19.4ZM8.84 17.12L9.19355 17.4736L9.20959 17.4575L9.22411 17.4401L8.84 17.12ZM16.16 14.8L15.717 15.0321L15.7219 15.041L16.16 14.8ZM13.6 12.24L13.3519 12.6741L13.3599 12.6787L13.368 12.6829L13.6 12.24ZM6.44 12.24L6.19631 11.8034L6.193 11.8053L6.44 12.24ZM3.76 14.84L4.19071 15.094L4.19345 15.0892L3.76 14.84ZM3.8 21.8L4.24307 21.5679L4.2366 21.5563L3.8 21.8ZM6.4 24.44L6.65406 24.0092L6.64368 24.0034L6.4 24.44ZM14.92 23.28L15.2702 23.6369L15.2736 23.6336L14.92 23.28ZM17.16 23.96H17.66V22.541L16.7704 23.6466L17.16 23.96ZM9.96 27.52V28.0201L9.96909 28.0199L9.96 27.52ZM5.32 26.28L5.5725 25.8483L5.56282 25.8429L5.32 26.28ZM1.92 22.84L2.35757 22.5978L2.35159 22.5876L1.92 22.84ZM0.96 15.96L0.474929 15.8387L0.96 15.96ZM1.88 13.72L2.31415 13.9681L2.31668 13.9635L1.88 13.72ZM5.28 10.32L5.0371 9.88278L5.02615 9.88923L5.28 10.32ZM7.48 9.44L7.36268 8.95394L7.35873 8.95493L7.48 9.44ZM9.88 9.12V8.62H9.87194L9.86388 8.62026L9.88 9.12ZM13.88 10.04L13.6744 10.4958L13.676 10.4965L13.88 10.04ZM17.16 12.56L16.7759 12.8801L17.66 13.941V12.56H17.16ZM17.16 8.76L17.4267 8.33704L16.66 7.85371V8.76H17.16ZM21.44 10.04L21.6636 10.4872L23.3695 9.63428L21.4646 9.5406L21.44 10.04ZM19.84 11L20.1523 11.3904L20.174 11.3731L20.1936 11.3536L19.84 11ZM19.48 11.36L19.0896 11.0477L19.0686 11.0739L19.0513 11.1028L19.48 11.36ZM19.24 11.84L18.7804 11.643L18.7749 11.6559L18.7701 11.6691L19.24 11.84ZM19.72 25.56L20.1388 25.2869L20.1347 25.2806L20.1305 25.2745L19.72 25.56ZM21.88 27V27.5L22.0381 26.5257L21.88 27ZM17.16 27H16.66V27.5H17.16V27ZM9.96 17.14C10.215 17.14 10.4903 17.2388 10.7946 17.4996L11.4454 16.7404C11.003 16.3612 10.505 16.14 9.96 16.14V17.14ZM10.7664 17.4736C10.9568 17.664 11.06 17.9057 11.06 18.24H12.06C12.06 17.6676 11.8698 17.1627 11.4736 16.7664L10.7664 17.4736ZM11.06 18.24C11.06 18.5743 10.9562 18.8387 10.7514 19.0621L11.4886 19.7379C11.8705 19.3213 12.06 18.8123 12.06 18.24H11.06ZM10.7664 19.0464C10.5404 19.2725 10.281 19.38 9.96 19.38V20.38C10.5457 20.38 11.0596 20.1675 11.4736 19.7536L10.7664 19.0464ZM9.96 19.38C9.67461 19.38 9.4261 19.279 9.19355 19.0464L8.48645 19.7536C8.8939 20.161 9.39206 20.38 9.96 20.38V19.38ZM9.19355 19.0464C8.96751 18.8204 8.86 18.561 8.86 18.24H7.86C7.86 18.8257 8.0725 19.3396 8.48645 19.7536L9.19355 19.0464ZM8.86 18.24C8.86 17.9546 8.96101 17.7061 9.19355 17.4736L8.48645 16.7664C8.07899 17.1739 7.86 17.6721 7.86 18.24H8.86ZM9.22411 17.4401C9.38072 17.2522 9.60314 17.14 9.96 17.14V16.14C9.35686 16.14 8.83261 16.3478 8.45589 16.7999L9.22411 17.4401ZM17.54 18.24C17.54 16.9298 17.2257 15.7001 16.5981 14.559L15.7219 15.041C16.2676 16.0332 16.54 17.0969 16.54 18.24H17.54ZM16.6029 14.568C15.969 13.3579 15.0421 12.431 13.832 11.7971L13.368 12.6829C14.3979 13.2224 15.1776 14.0021 15.7171 15.032L16.6029 14.568ZM13.8481 11.8059C12.6566 11.125 11.3982 10.78 10.08 10.78V11.78C11.2151 11.78 12.3034 12.075 13.3519 12.6741L13.8481 11.8059ZM10.08 10.78C8.71242 10.78 7.41546 11.1229 6.19632 11.8034L6.68368 12.6766C7.75788 12.077 8.88759 11.78 10.08 11.78V10.78ZM6.193 11.8053C4.94981 12.5116 3.9886 13.4394 3.32655 14.5908L4.19345 15.0892C4.75807 14.1073 5.58353 13.3017 6.68701 12.6747L6.193 11.8053ZM3.32932 14.586C2.66883 15.706 2.34 16.9409 2.34 18.28H3.34C3.34 17.1124 3.6245 16.054 4.19068 15.094L3.32932 14.586ZM2.34 18.28C2.34 19.5732 2.68585 20.8297 3.3634 22.0437L4.2366 21.5563C3.63415 20.4769 3.34 19.3868 3.34 18.28H2.34ZM3.35708 22.032C3.99066 23.2416 4.92822 24.1912 6.15632 24.8766L6.64368 24.0034C5.57844 23.4088 4.78267 22.5984 4.24292 21.568L3.35708 22.032ZM6.14601 24.8707C7.26763 25.5322 8.51625 25.86 9.88 25.86V24.86C8.68375 24.86 7.61237 24.5745 6.65399 24.0093L6.14601 24.8707ZM9.88 25.86C11.9601 25.86 13.7651 25.1135 15.2702 23.6369L14.5698 22.9231C13.2482 24.2198 11.6932 24.86 9.88 24.86V25.86ZM15.2736 23.6336C16.7778 22.1293 17.54 20.3232 17.54 18.24H16.54C16.54 20.0501 15.8888 21.6041 14.5664 22.9264L15.2736 23.6336ZM16.7704 23.6466C14.9951 25.8531 12.7335 26.9695 9.95091 27.0201L9.96909 28.0199C13.0532 27.9638 15.5916 26.7069 17.5496 24.2734L16.7704 23.6466ZM9.96 27.02C8.3663 27.02 6.90712 26.6291 5.57244 25.8484L5.06756 26.7116C6.55954 27.5843 8.1937 28.02 9.96 28.02V27.02ZM5.56282 25.8429C4.20773 25.0901 3.14049 24.0124 2.35745 22.5978L1.48255 23.0822C2.35284 24.6543 3.55228 25.8699 5.07718 26.7171L5.56282 25.8429ZM2.35159 22.5876C1.57018 21.2516 1.18 19.8055 1.18 18.24H0.18C0.18 19.9811 0.616485 21.6017 1.48841 23.0924L2.35159 22.5876ZM1.18 18.24C1.18 17.5073 1.26837 16.7881 1.44507 16.0813L0.474929 15.8387C0.278299 16.6252 0.18 17.426 0.18 18.24H1.18ZM1.44507 16.0813C1.61942 15.3839 1.90754 14.6796 2.31412 13.9681L1.44588 13.4719C0.999129 14.2537 0.673909 15.0428 0.474929 15.8387L1.44507 16.0813ZM2.31668 13.9635C3.04286 12.6614 4.10977 11.59 5.53385 10.7508L5.02615 9.88923C3.46356 10.81 2.2638 12.0052 1.44332 13.4765L2.31668 13.9635ZM5.52282 10.7571C6.20725 10.3768 6.89991 10.1004 7.60127 9.92507L7.35873 8.95493C6.56676 9.15292 5.79275 9.46316 5.03718 9.88292L5.52282 10.7571ZM7.59732 9.92604C8.33619 9.74769 9.10222 9.64535 9.89612 9.61974L9.86388 8.62026C9.00445 8.64798 8.17048 8.75897 7.36268 8.95396L7.59732 9.92604ZM9.88 9.62C11.1064 9.62 12.3699 9.90747 13.6744 10.4958L14.0856 9.58421C12.6701 8.94586 11.2669 8.62 9.88 8.62V9.62ZM13.676 10.4965C14.8554 11.0235 15.8883 11.815 16.7759 12.8801L17.5441 12.2399C16.565 11.065 15.4113 10.1765 14.084 9.58349L13.676 10.4965ZM17.66 12.56V8.76H16.66V12.56H17.66ZM16.8934 9.18296C18.2014 10.0076 19.7136 10.4557 21.4154 10.5394L21.4646 9.5406C19.913 9.4643 18.5719 9.05906 17.4267 8.33704L16.8934 9.18296ZM21.2164 9.59278C20.7836 9.80917 20.4245 10.0022 20.1428 10.1713C19.8699 10.335 19.6388 10.4941 19.4864 10.6464L20.1936 11.3536C20.2546 11.2925 20.3968 11.185 20.6572 11.0287C20.9088 10.8778 21.243 10.6975 21.6636 10.4872L21.2164 9.59278ZM19.5277 10.6096C19.3655 10.7393 19.2193 10.8855 19.0896 11.0477L19.8704 11.6723C19.954 11.5678 20.0478 11.474 20.1523 11.3904L19.5277 10.6096ZM19.0513 11.1028C18.9567 11.2603 18.8668 11.4415 18.7804 11.643L19.6996 12.037C19.7732 11.8652 19.8433 11.7264 19.9087 11.6172L19.0513 11.1028ZM18.7701 11.6691C18.6293 12.0563 18.58 12.7009 18.58 13.52H19.58C19.58 12.6858 19.6374 12.2103 19.7099 12.0109L18.7701 11.6691ZM18.58 13.52V22.56H19.58V13.52H18.58ZM18.58 22.56C18.58 23.9736 18.7928 25.1027 19.3095 25.8455L20.1305 25.2745C19.7938 24.7906 19.58 23.9197 19.58 22.56H18.58ZM19.3012 25.8331C19.7869 26.5779 20.6258 27.109 21.7219 27.4743L22.0381 26.5257C21.0542 26.1977 20.4531 25.7687 20.1388 25.2869L19.3012 25.8331ZM21.88 26.5H17.16V27.5H21.88V26.5ZM17.66 27V23.96H16.66V27H17.66ZM27.9288 22.52L28.2541 22.8996L29.6422 21.7099L27.8419 22.0276L27.9288 22.52ZM26.7687 23.28L27.1592 23.5923L27.1641 23.5862L27.1688 23.58L26.7687 23.28ZM26.2887 24.68L26.7884 24.6978L26.7887 24.6889V24.68H26.2887ZM27.2087 26.72L26.8628 27.081L26.8715 27.0894L26.8807 27.0973L27.2087 26.72ZM32.0888 26.44L31.749 26.0731L31.748 26.0741L32.0888 26.44ZM31.7288 20.64L32.0824 20.2863L32.0723 20.2768L31.7288 20.64ZM24.4888 20.68L24.1352 20.3264L24.4888 20.68ZM23.0088 24.32L23.5085 24.3356L23.5088 24.3278V24.32H23.0088ZM23.4088 26.64L22.9483 26.8348L22.9529 26.8457L22.958 26.8564L23.4088 26.64ZM24.7687 28.48L24.4235 28.8417L24.4237 28.8419L24.7687 28.48ZM29.3288 30.16L29.3217 30.66H29.3288V30.16ZM32.7687 29.36L32.9838 29.8115L32.9924 29.8072L32.7687 29.36ZM35.1287 27.2L34.7034 26.9373L34.6976 26.9465L34.6923 26.9561L35.1287 27.2ZM35.8088 23.2L35.3216 23.3124L35.3256 23.3299L35.3309 23.347L35.8088 23.2ZM35.4888 22.12L35.9596 21.9518L35.9553 21.9396L35.9503 21.9277L35.4888 22.12ZM34.3688 20.32L34.7485 19.9945L34.7404 19.9855L34.3688 20.32ZM33.4088 19.52L33.1131 19.9232L33.1221 19.9298L33.1314 19.936L33.4088 19.52ZM31.9688 18.52L32.2461 18.104L32.2385 18.0989L32.2308 18.0942L31.9688 18.52ZM30.5688 17.72L30.3056 18.1451L30.3173 18.1524L30.3293 18.1589L30.5688 17.72ZM28.5287 16.56L28.2935 17.0012L28.5287 16.56ZM25.4487 14.48L25.0467 14.7772L25.0568 14.7909L25.0678 14.8038L25.4487 14.48ZM24.7687 12.52H25.2687V12.5124L25.2685 12.5049L24.7687 12.52ZM26.0487 10L25.7194 9.62364L25.7124 9.63003L26.0487 10ZM32.7288 9.84L33.0013 9.42074L32.9957 9.41726L32.7288 9.84ZM34.9688 12.56L35.1269 13.0343L35.6217 12.8694L35.436 12.382L34.9688 12.56ZM32.9287 14.24L32.4376 14.3336L32.6883 15.6498L33.3611 14.4911L32.9287 14.24ZM32.4487 12.8L32.8899 12.5647L32.4487 12.8ZM31.6488 11.76L31.9867 11.3913L31.978 11.3837L31.6488 11.76ZM29.4888 10.88L29.5054 10.3803L29.4971 10.38H29.4888V10.88ZM27.8487 11.4L28.1741 11.7796L28.1887 11.7671L28.2023 11.7536L27.8487 11.4ZM27.7288 13.68L28.1129 13.3599L28.0983 13.3425L28.0823 13.3264L27.7288 13.68ZM30.1287 15.24L29.8911 15.6801L29.9012 15.6852L30.1287 15.24ZM35.0488 18.08L34.7468 18.4785L34.7543 18.4842L34.762 18.4896L35.0488 18.08ZM37.1688 20.6L37.6113 20.3671L37.6073 20.3598L37.1688 20.6ZM35.6888 29.32L36.0326 29.683L36.0359 29.6798L35.6888 29.32ZM29.7688 31.52V32.02L29.7742 32.02L29.7688 31.52ZM24.2488 29.52L23.9057 29.884L23.9157 29.893L24.2488 29.52ZM22.0888 24.64H21.5886L21.5889 24.6537L22.0888 24.64ZM23.8088 20.36L23.4552 20.0064L23.8088 20.36ZM30.9288 19.4L31.1682 18.9609L31.1574 18.9554L30.9288 19.4ZM32.9688 21.36L32.5362 21.6111L32.5424 21.6213L32.9688 21.36ZM33.7287 23.84H33.2286L33.2289 23.8519L33.7287 23.84ZM32.4888 26.8L32.1352 26.4464L32.4888 26.8ZM26.8088 27.04L27.1623 26.6864L27.1555 26.6796L27.1485 26.6731L26.8088 27.04ZM26.5287 22.72L26.1752 22.3664L26.1629 22.3788L26.1514 22.3919L26.5287 22.72ZM30.1287 22.4L30.4951 22.0598L30.4888 22.053L30.4823 22.0464L30.1287 22.4ZM30.6888 23.68H31.1888V23.6661L31.188 23.6523L30.6888 23.68ZM30.2087 24.84L30.5177 25.2332L30.5491 25.2085L30.5762 25.1791L30.2087 24.84ZM27.8487 24.84L27.4952 25.1936L27.8487 24.84ZM27.8419 22.0276C27.2438 22.1331 26.752 22.469 26.3687 22.98L27.1688 23.58C27.4255 23.2376 27.707 23.0668 28.0156 23.0124L27.8419 22.0276ZM26.3783 22.9677C25.9843 23.4602 25.7887 24.0382 25.7887 24.68H26.7887C26.7887 24.2552 26.9132 23.8998 27.1592 23.5923L26.3783 22.9677ZM25.7891 24.6622C25.7564 25.5779 26.1409 26.3892 26.8628 27.081L27.5547 26.359C26.9966 25.8242 26.7678 25.2754 26.7884 24.6978L25.7891 24.6622ZM26.8807 27.0973C27.5984 27.7214 28.4938 28.02 29.5288 28.02V27.02C28.697 27.02 28.0458 26.7853 27.5368 26.3427L26.8807 27.0973ZM29.5288 28.02C30.6054 28.02 31.5768 27.5998 32.4295 26.8059L31.748 26.0741C31.0541 26.7202 30.3187 27.02 29.5288 27.02V28.02ZM32.4285 26.8069C33.2573 26.0394 33.6688 25.0499 33.6688 23.88H32.6688C32.6688 24.7901 32.3602 25.5073 31.749 26.0731L32.4285 26.8069ZM33.6688 23.88C33.6688 22.5295 33.1226 21.3268 32.0823 20.2864L31.3752 20.9936C32.2549 21.8732 32.6688 22.8305 32.6688 23.88H33.6688ZM32.0723 20.2768C30.9907 19.2536 29.6802 18.74 28.1688 18.74V19.74C29.4306 19.74 30.4935 20.1598 31.3852 21.0032L32.0723 20.2768ZM28.1688 18.74C26.5574 18.74 25.1988 19.2629 24.1352 20.3264L24.8423 21.0336C25.6987 20.1771 26.7935 19.74 28.1688 19.74V18.74ZM24.1352 20.3264C23.0515 21.4102 22.5088 22.7521 22.5088 24.32H23.5088C23.5088 23.0079 23.9527 21.9231 24.8423 21.0336L24.1352 20.3264ZM22.509 24.3044C22.4804 25.2202 22.6233 26.0666 22.9483 26.8348L23.8692 26.4452C23.6076 25.8267 23.4838 25.1265 23.5085 24.3356L22.509 24.3044ZM22.958 26.8564C23.3065 27.5825 23.7974 28.244 24.4235 28.8417L25.114 28.1183C24.5668 27.596 24.151 27.0309 23.8595 26.4236L22.958 26.8564ZM24.4237 28.8419C25.6789 30.0386 27.3284 30.6319 29.3217 30.66L29.3358 29.66C27.5424 29.6348 26.152 29.108 25.1138 28.1181L24.4237 28.8419ZM29.3288 30.66C30.5807 30.66 31.8005 30.3749 32.9837 29.8114L32.5538 28.9086C31.497 29.4118 30.4235 29.66 29.3288 29.66V30.66ZM32.9924 29.8072C34.1351 29.2359 35.0026 28.4507 35.5652 27.4439L34.6923 26.9561C34.2415 27.7627 33.5358 28.4175 32.5451 28.9128L32.9924 29.8072ZM35.5541 27.4627C36.1617 26.4792 36.4688 25.4152 36.4688 24.28H35.4688C35.4688 25.2248 35.2159 26.1075 34.7034 26.9373L35.5541 27.4627ZM36.4688 24.28C36.4688 23.8583 36.4084 23.4487 36.2866 23.053L35.3309 23.347C35.4224 23.6447 35.4688 23.955 35.4688 24.28H36.4688ZM36.2959 23.0876C36.2111 22.72 36.0987 22.3414 35.9596 21.9518L35.0179 22.2882C35.1454 22.6453 35.2464 22.9866 35.3216 23.3124L36.2959 23.0876ZM35.9503 21.9277C35.6622 21.2363 35.2603 20.5919 34.7484 19.9946L33.9891 20.6454C34.4372 21.1681 34.782 21.7237 35.0272 22.3123L35.9503 21.9277ZM34.7404 19.9855C34.4649 19.6794 34.1099 19.3865 33.6861 19.104L33.1314 19.936C33.5076 20.1868 33.7926 20.4273 33.9971 20.6545L34.7404 19.9855ZM33.7044 19.1168C33.2967 18.8178 32.8103 18.4801 32.2461 18.104L31.6914 18.936C32.2472 19.3066 32.7208 19.6355 33.1131 19.9232L33.7044 19.1168ZM32.2308 18.0942C31.8735 17.8743 31.3983 17.603 30.8082 17.2811L30.3293 18.1589C30.9125 18.477 31.3706 18.739 31.7067 18.9458L32.2308 18.0942ZM30.8319 17.2949C30.2601 16.9409 29.5703 16.5488 28.764 16.1188L28.2935 17.0012C29.0872 17.4245 29.7574 17.8058 30.3056 18.1451L30.8319 17.2949ZM28.764 16.1188C27.1581 15.2623 26.2135 14.6077 25.8297 14.1562L25.0678 14.8038C25.5906 15.4189 26.6994 16.151 28.2935 17.0012L28.764 16.1188ZM25.8508 14.1828C25.4544 13.6464 25.2687 13.0956 25.2687 12.52H24.2687C24.2687 13.3311 24.5364 14.0869 25.0467 14.7772L25.8508 14.1828ZM25.2685 12.5049C25.2477 11.8175 25.5732 11.108 26.3851 10.37L25.7124 9.63003C24.7643 10.492 24.2365 11.4625 24.269 12.5351L25.2685 12.5049ZM26.378 10.3763C27.1228 9.72462 28.1045 9.38 29.3687 9.38V8.38C27.913 8.38 26.6814 8.78205 25.7195 9.62371L26.378 10.3763ZM29.3687 9.38C30.5033 9.38 31.5303 9.67445 32.4618 10.2627L32.9957 9.41726C31.9005 8.72555 30.6876 8.38 29.3687 8.38V9.38ZM32.4563 10.2592C33.4399 10.8986 34.1149 11.7233 34.5015 12.738L35.436 12.382C34.9692 11.1567 34.1509 10.1681 33.0012 9.42078L32.4563 10.2592ZM34.8106 12.0857C33.8112 12.4188 33.0355 13.0604 32.4964 13.9889L33.3611 14.4911C33.782 13.7662 34.3663 13.2879 35.1269 13.0343L34.8106 12.0857ZM33.4199 14.1464C33.3061 13.5491 33.1322 13.0189 32.8899 12.5647L32.0076 13.0353C32.192 13.3811 32.338 13.8109 32.4376 14.3336L33.4199 14.1464ZM32.8899 12.5647C32.6511 12.117 32.3502 11.7247 31.9866 11.3914L31.3109 12.1286C31.5873 12.382 31.8197 12.683 32.0076 13.0353L32.8899 12.5647ZM31.978 11.3837C31.257 10.7528 30.4283 10.411 29.5054 10.3803L29.4721 11.3797C30.1492 11.4023 30.7605 11.6472 31.3195 12.1363L31.978 11.3837ZM29.4888 10.38C28.6776 10.38 27.9748 10.5669 27.4952 11.0464L28.2023 11.7536C28.4161 11.5398 28.8066 11.38 29.4888 11.38V10.38ZM27.5234 11.0204C27.0423 11.4327 26.7887 11.97 26.7887 12.6H27.7887C27.7887 12.27 27.9085 12.0073 28.1741 11.7796L27.5234 11.0204ZM26.7887 12.6C26.7887 13.155 26.9851 13.6435 27.3752 14.0336L28.0823 13.3264C27.8857 13.1298 27.7887 12.8983 27.7887 12.6H26.7887ZM27.3446 14.0001C27.5305 14.2232 27.8543 14.4679 28.2563 14.7292C28.6722 14.9996 29.2186 15.3168 29.8912 15.68L30.3663 14.8C29.7055 14.4432 29.1853 14.1404 28.8012 13.8908C28.4032 13.6321 28.1936 13.4568 28.1129 13.3599L27.3446 14.0001ZM29.9012 15.6852C32.3017 16.9121 33.9058 17.8414 34.7468 18.4785L35.3507 17.6815C34.4317 16.9853 32.7558 16.0212 30.3563 14.7948L29.9012 15.6852ZM34.762 18.4896C35.4828 18.9941 36.1429 19.7676 36.7302 20.8402L37.6073 20.3598C36.968 19.1924 36.2147 18.2859 35.3355 17.6704L34.762 18.4896ZM36.7263 20.8329C37.2183 21.7678 37.4688 22.82 37.4688 24H38.4688C38.4688 22.6734 38.1858 21.4589 37.6112 20.3671L36.7263 20.8329ZM37.4688 24C37.4688 25.9419 36.7656 27.5861 35.3416 28.9602L36.0359 29.6798C37.6519 28.1206 38.4688 26.2181 38.4688 24H37.4688ZM35.3449 28.957C33.9308 30.2966 32.0853 30.9945 29.7633 31.02L29.7742 32.02C32.3055 31.9922 34.4067 31.2234 36.0326 29.683L35.3449 28.957ZM29.7688 31.02C27.6927 31.02 25.9747 30.3907 24.5818 29.147L23.9157 29.893C25.5095 31.3159 27.4715 32.02 29.7688 32.02V31.02ZM24.5917 29.1561C23.3042 27.9429 22.6383 26.4433 22.5886 24.6263L21.5889 24.6537C21.6458 26.73 22.42 28.4838 23.9058 29.8839L24.5917 29.1561ZM22.5888 24.64C22.5888 23.0582 23.1147 21.7611 24.1623 20.7136L23.4552 20.0064C22.2094 21.2522 21.5888 22.8085 21.5888 24.64H22.5888ZM24.1623 20.7136C25.1824 19.6935 26.4524 19.18 28.0088 19.18V18.18C26.2051 18.18 24.6751 18.7865 23.4552 20.0064L24.1623 20.7136ZM28.0088 19.18C28.9397 19.18 29.8349 19.3997 30.7001 19.8446L31.1574 18.9554C30.156 18.4403 29.1045 18.18 28.0088 18.18V19.18ZM30.6893 19.8389C31.4931 20.2774 32.1046 20.8674 32.5364 21.6111L33.4011 21.1089C32.8729 20.1992 32.1244 19.4826 31.1682 18.9611L30.6893 19.8389ZM32.5424 21.6213C33.0094 22.3831 33.2287 23.1205 33.2287 23.84H34.2287C34.2287 22.9062 33.9415 21.9902 33.3951 21.0987L32.5424 21.6213ZM33.2289 23.8519C33.252 24.8239 32.9002 25.6815 32.1352 26.4464L32.8423 27.1536C33.784 26.2118 34.2588 25.0961 34.2286 23.8281L33.2289 23.8519ZM32.1352 26.4464C31.4027 27.179 30.53 27.54 29.4888 27.54V28.54C30.7941 28.54 31.9215 28.0744 32.8423 27.1536L32.1352 26.4464ZM29.4888 27.54C28.4746 27.54 27.7178 27.242 27.1623 26.6864L26.4552 27.3936C27.233 28.1714 28.2629 28.54 29.4888 28.54V27.54ZM27.1485 26.6731C26.5176 26.089 26.2288 25.4439 26.2288 24.72H25.2288C25.2288 25.7561 25.6599 26.6576 26.469 27.4069L27.1485 26.6731ZM26.2288 24.72C26.2288 24.1362 26.441 23.583 26.9061 23.0481L26.1514 22.3919C25.5499 23.0837 25.2288 23.8638 25.2288 24.72H26.2288ZM26.8823 23.0736C27.3441 22.6118 27.9082 22.38 28.6087 22.38V21.38C27.656 21.38 26.8334 21.7082 26.1752 22.3664L26.8823 23.0736ZM28.6087 22.38C29.1918 22.38 29.552 22.5304 29.7752 22.7536L30.4823 22.0464C30.0122 21.5763 29.3591 21.38 28.6087 21.38V22.38ZM29.7624 22.7402C30.0348 23.0336 30.1697 23.3515 30.1895 23.7077L31.188 23.6523C31.1544 23.0485 30.9161 22.5131 30.4951 22.0598L29.7624 22.7402ZM30.1888 23.68C30.1888 23.9673 30.0859 24.236 29.8413 24.5009L30.5762 25.1791C30.9716 24.7507 31.1888 24.2461 31.1888 23.68H30.1888ZM29.8998 24.4468C29.5975 24.6844 29.3168 24.78 29.0487 24.78V25.78C29.5807 25.78 30.0733 25.5823 30.5177 25.2332L29.8998 24.4468ZM29.0487 24.78C28.6434 24.78 28.3819 24.666 28.2023 24.4864L27.4952 25.1936C27.9023 25.6007 28.4407 25.78 29.0487 25.78V24.78ZM28.2023 24.4864C27.9698 24.2539 27.8687 24.0054 27.8687 23.72H26.8687C26.8687 24.2879 27.0877 24.7861 27.4952 25.1936L28.2023 24.4864ZM27.8687 23.72C27.8687 23.39 27.9885 23.1273 28.2541 22.8996L27.6034 22.1404C27.1223 22.5527 26.8687 23.09 26.8687 23.72H27.8687ZM38.2978 27L38.1009 26.5404L38.2978 27.5V27ZM40.8578 25.32L40.4647 25.0111L40.4576 25.0201L40.4509 25.0294L40.8578 25.32ZM41.0578 12.08L41.5322 11.9219L41.5292 11.9131L41.526 11.9044L41.0578 12.08ZM40.7778 11.48L40.3437 11.7281L40.7778 11.48ZM40.3378 11L39.9843 11.3536L40.0135 11.3828L40.0472 11.4069L40.3378 11ZM39.6178 10.44L39.8952 10.024H39.8952L39.6178 10.44ZM38.3378 9.68V9.18L38.0969 10.1181L38.3378 9.68ZM40.0178 9.64L39.9928 9.14062L39.9915 9.14069L40.0178 9.64ZM41.3778 9.52L41.3281 9.02248L41.3176 9.02353L41.3071 9.02502L41.3778 9.52ZM42.8978 9.28L43.0063 9.76809L43.019 9.76526L43.0316 9.76176L42.8978 9.28ZM44.2978 8.84L44.745 9.06361L45.2985 7.95657L44.1314 8.3685L44.2978 8.84ZM43.7378 10L44.185 10.2236L44.1885 10.2166L44.1918 10.2095L43.7378 10ZM43.3778 10.92L42.8954 10.7884L42.8931 10.7969L42.8911 10.8055L43.3778 10.92ZM43.7778 25.12L43.3306 25.3436L43.3339 25.3502L43.7778 25.12ZM45.7778 27V27.5H47.7074L46.0206 26.5629L45.7778 27ZM43.8178 2.88H44.3178V2.87L44.3174 2.86001L43.8178 2.88ZM43.2978 4.44L42.9443 4.08645L42.9307 4.10002L42.9182 4.1146L43.2978 4.44ZM40.9778 4.44L40.5961 4.76297L40.6096 4.77885L40.6243 4.79355L40.9778 4.44ZM40.4578 2.8H39.9578V2.81783L39.9591 2.83562L40.4578 2.8ZM40.9378 1.24L40.5536 0.919841L40.5474 0.927651L40.9378 1.24ZM42.0978 0.679998V0.179998H42.0716L42.0455 0.182745L42.0978 0.679998ZM43.2978 1.28L43.6882 0.967652L43.6763 0.952772L43.6633 0.938841L43.2978 1.28ZM38.4948 27.4596C39.8133 26.8945 40.7793 26.2902 41.2647 25.6106L40.4509 25.0294C40.1363 25.4698 39.3957 25.9855 38.1009 26.5404L38.4948 27.4596ZM41.251 25.6289C41.4661 25.3551 41.5973 24.9919 41.6781 24.5881C41.7601 24.178 41.7978 23.686 41.7978 23.12H40.7978C40.7978 23.6474 40.7622 24.0686 40.6975 24.3919C40.6316 24.7214 40.5428 24.9116 40.4647 25.0111L41.251 25.6289ZM41.7978 23.12V14.32H40.7978V23.12H41.7978ZM41.7978 14.32C41.7978 13.2956 41.7188 12.4818 41.5322 11.9219L40.5835 12.2381C40.7168 12.6382 40.7978 13.3178 40.7978 14.32H41.7978ZM41.526 11.9044C41.4371 11.6675 41.3326 11.4432 41.2119 11.2319L40.3437 11.7281C40.4363 11.8902 40.5185 12.0658 40.5896 12.2556L41.526 11.9044ZM41.2119 11.2319C41.0671 10.9785 40.8698 10.7656 40.6284 10.5931L40.0472 11.4069C40.1791 11.5011 40.2752 11.6082 40.3437 11.7281L41.2119 11.2319ZM40.6914 10.6464C40.4975 10.4526 40.2264 10.2448 39.8952 10.024L39.3405 10.856C39.6492 11.0619 39.8581 11.2274 39.9843 11.3536L40.6914 10.6464ZM39.8952 10.024C39.5586 9.79961 39.1183 9.53863 38.5788 9.24189L38.0969 10.1181C38.624 10.408 39.037 10.6537 39.3405 10.856L39.8952 10.024ZM38.3378 10.18C38.9582 10.18 39.5271 10.1665 40.0441 10.1393L39.9915 9.14069C39.4952 9.16681 38.9441 9.18 38.3378 9.18V10.18ZM40.0428 10.1394C40.5857 10.1122 41.0552 10.0712 41.4485 10.015L41.3071 9.02502C40.9537 9.07551 40.5166 9.11444 39.9928 9.14062L40.0428 10.1394ZM41.4276 10.0175C41.9789 9.96239 42.5053 9.87943 43.0063 9.76809L42.7893 8.79191C42.3304 8.89391 41.8434 8.97095 41.3281 9.02248L41.4276 10.0175ZM43.0316 9.76176C43.5222 9.62549 43.9998 9.47542 44.4642 9.31149L44.1314 8.3685C43.6892 8.52458 43.2334 8.66785 42.764 8.79824L43.0316 9.76176ZM43.8506 8.61639C43.6355 9.04663 43.4465 9.43809 43.2838 9.79047L44.1918 10.2095C44.3492 9.86858 44.5335 9.48671 44.745 9.06361L43.8506 8.61639ZM43.2906 9.77639C43.1184 10.1208 42.9855 10.4584 42.8954 10.7884L43.8602 11.0516C43.9302 10.795 44.0372 10.5192 44.185 10.2236L43.2906 9.77639ZM42.8911 10.8055C42.7688 11.3252 42.7178 12.3313 42.7178 13.76H43.7178C43.7178 12.3087 43.7735 11.4215 43.8645 11.0345L42.8911 10.8055ZM42.7178 13.76V21.64H43.7178V13.76H42.7178ZM42.7178 21.64C42.7178 23.2339 42.9038 24.49 43.3306 25.3436L44.225 24.8964C43.9051 24.2566 43.7178 23.1927 43.7178 21.64H42.7178ZM43.3339 25.3502C43.7659 26.1833 44.5187 26.8725 45.535 27.4371L46.0206 26.5629C45.1169 26.0608 44.5364 25.4967 44.2217 24.8898L43.3339 25.3502ZM45.7778 26.5H38.2978V27.5H45.7778V26.5ZM43.3178 2.88C43.3178 3.49626 43.1641 3.86662 42.9443 4.08645L43.6514 4.79355C44.1249 4.32005 44.3178 3.6504 44.3178 2.88H43.3178ZM42.9182 4.1146C42.6695 4.40479 42.439 4.5 42.2178 4.5V5.5C42.7967 5.5 43.2862 5.22187 43.6774 4.7654L42.9182 4.1146ZM42.2178 4.5C41.9189 4.5 41.6276 4.38269 41.3314 4.08645L40.6243 4.79355C41.0747 5.24398 41.61 5.5 42.2178 5.5V4.5ZM41.3595 4.11703C41.1663 3.88874 41.0068 3.4678 40.9565 2.76438L39.9591 2.83562C40.0155 3.62553 40.2026 4.29792 40.5961 4.76297L41.3595 4.11703ZM40.9578 2.8C40.9578 2.24456 41.0954 1.84344 41.3282 1.55234L40.5474 0.927651C40.1403 1.43656 39.9578 2.07544 39.9578 2.8H40.9578ZM41.3219 1.56009C41.4875 1.36144 41.7423 1.22018 42.1502 1.17725L42.0455 0.182745C41.44 0.246485 40.9215 0.478559 40.5537 0.919905L41.3219 1.56009ZM42.0978 1.18C42.3493 1.18 42.6252 1.29218 42.9323 1.62116L43.6633 0.938841C43.2237 0.467815 42.6997 0.179998 42.0978 0.179998V1.18ZM42.9074 1.59235C43.1431 1.88696 43.2945 2.30771 43.3182 2.89998L44.3174 2.86001C44.2878 2.11896 44.0926 1.47304 43.6882 0.967652L42.9074 1.59235ZM56.7019 17.12L56.3483 16.7664L56.3336 16.7812L56.3202 16.797L56.7019 17.12ZM58.9819 17.12L59.3505 16.7821L59.3431 16.7741L59.3354 16.7664L58.9819 17.12ZM59.5019 18.24H60.0019V18.2089L59.998 18.178L59.5019 18.24ZM58.9819 19.4L58.6283 19.0464L58.6206 19.0541L58.6133 19.0621L58.9819 19.4ZM56.7019 19.4L56.3202 19.723L56.3401 19.7465L56.3627 19.7674L56.7019 19.4ZM69.7819 19.4L69.3949 19.7166L69.4107 19.7359L69.4283 19.7536L69.7819 19.4ZM69.3419 18.24H68.8419V18.2677L68.8449 18.2952L69.3419 18.24ZM69.7819 17.08L69.4589 16.6983L69.4201 16.7311L69.3887 16.7711L69.7819 17.08ZM72.1019 17.12L72.4705 16.7821L72.4501 16.76L72.4273 16.7404L72.1019 17.12ZM72.5819 18.24H73.0819V18.2244L73.0809 18.2088L72.5819 18.24ZM72.1019 19.4L72.4554 19.7536L72.4625 19.7465L72.4693 19.7391L72.1019 19.4ZM51.3419 12.08H50.8419V13.3348L51.7049 12.4239L51.3419 12.08ZM52.7819 10.76L53.0888 11.1547L53.0955 11.1495L53.102 11.1441L52.7819 10.76ZM54.3019 9.8L54.5071 10.256L54.5159 10.2519L54.3019 9.8ZM55.8619 9.28L55.9599 9.77029L55.8619 9.28ZM57.5419 9.08V8.58H57.5305L57.5192 8.58051L57.5419 9.08ZM60.5819 9.68L60.7948 9.22759L60.7869 9.22387L60.7788 9.22043L60.5819 9.68ZM61.8219 10.4L61.5313 10.8069L61.5475 10.8185L61.5646 10.8287L61.8219 10.4ZM62.9419 11.32L63.3136 10.9855L63.3083 10.9798L62.9419 11.32ZM63.7019 12.28L63.295 12.5706L63.3002 12.5778L63.3056 12.5849L63.7019 12.28ZM64.5419 13.6L64.1038 13.841L64.5591 14.6688L64.9875 13.8267L64.5419 13.6ZM67.5819 10.24L67.831 10.6737L67.8419 10.6671L67.5819 10.24ZM71.6619 9.12V9.62004L71.6685 9.61996L71.6619 9.12ZM76.9819 10.96L77.2982 10.5728L77.2967 10.5715L76.9819 10.96ZM79.0619 20.68L78.6027 20.4817L78.5984 20.4924L79.0619 20.68ZM75.8619 25.6L75.4672 25.293L75.036 25.8474L75.701 26.0734L75.8619 25.6ZM79.9819 27V27.5L80.1427 26.5266L79.9819 27ZM72.6619 27L72.2636 26.6976L71.6545 27.5H72.6619V27ZM77.1019 20.28L76.6518 20.0622L76.6517 20.0624L77.1019 20.28ZM75.9419 13.04L76.2954 12.6864L76.2914 12.6825L75.9419 13.04ZM71.5819 11.24L71.5897 10.74H71.5819V11.24ZM68.7419 12L68.9758 12.4419L68.9804 12.4394L68.7419 12ZM67.5819 12.76L67.902 13.1441V13.1441L67.5819 12.76ZM66.7419 13.72L67.1604 13.9936L67.1625 13.9904L66.7419 13.72ZM65.7819 16.16L66.2701 16.2685L66.2722 16.2581L65.7819 16.16ZM65.6619 17.12L66.1608 17.1533L65.6619 17.12ZM65.7819 24.28L66.27 24.1715L66.2656 24.152L66.2598 24.133L65.7819 24.28ZM66.4619 25.64L66.0738 25.9553L66.0818 25.9651L66.0902 25.9745L66.4619 25.64ZM68.5019 27V27.5L68.6972 26.5397L68.5019 27ZM60.9019 27L60.7337 26.5291L60.9019 27.5V27ZM63.1019 25.64L63.5145 25.9223L63.1019 25.64ZM61.8219 13L61.4569 13.3417L61.4571 13.342L61.8219 13ZM57.5419 11.12L57.5267 11.6198L57.5343 11.62H57.5419V11.12ZM53.1419 13.12L52.7738 12.7814L52.7665 12.7897L53.1419 13.12ZM52.0219 25.36L51.6114 25.6455L51.6155 25.6514L51.6198 25.6572L52.0219 25.36ZM54.5819 27V27.5L54.7607 26.5331L54.5819 27ZM46.5019 27L46.2899 26.5472L46.5019 27.5V27ZM48.8619 25.36L48.4457 25.0826L48.4391 25.093L48.8619 25.36ZM48.9019 11.68L49.34 11.439L49.336 11.4319L48.9019 11.68ZM46.7019 9.88L46.6736 9.3808L44.9558 9.47803L46.4582 10.3166L46.7019 9.88ZM49.6619 9.64L49.7326 10.135L49.742 10.1336L49.7513 10.1319L49.6619 9.64ZM50.5019 9.52L50.5516 10.0175L50.576 10.0151L50.5999 10.0103L50.5019 9.52ZM51.3419 9.32H51.8419V8.66537L51.2103 8.83762L51.3419 9.32ZM56.7619 18.24C56.7619 17.9742 56.8556 17.7123 57.0836 17.443L56.3202 16.797C55.9614 17.221 55.7619 17.7058 55.7619 18.24H56.7619ZM57.0554 17.4736C57.2815 17.2475 57.5409 17.14 57.8619 17.14V16.14C57.2762 16.14 56.7623 16.3525 56.3483 16.7664L57.0554 17.4736ZM57.8619 17.14C58.1473 17.14 58.3958 17.241 58.6283 17.4736L59.3354 16.7664C58.928 16.359 58.4298 16.14 57.8619 16.14V17.14ZM58.6133 17.4579C58.8372 17.7022 58.9654 17.9794 59.0057 18.302L59.998 18.178C59.9317 17.6473 59.7132 17.1778 59.3505 16.7821L58.6133 17.4579ZM59.0019 18.24C59.0019 18.5141 58.8964 18.7784 58.6283 19.0464L59.3354 19.7536C59.7607 19.3283 60.0019 18.8193 60.0019 18.24H59.0019ZM58.6133 19.0621C58.4193 19.2738 58.1821 19.38 57.8619 19.38V20.38C58.4483 20.38 58.9578 20.1662 59.3505 19.7379L58.6133 19.0621ZM57.8619 19.38C57.5746 19.38 57.3059 19.2771 57.041 19.0326L56.3627 19.7674C56.7912 20.1629 57.2958 20.38 57.8619 20.38V19.38ZM57.0836 19.077C56.8613 18.8144 56.7619 18.5404 56.7619 18.24H55.7619C55.7619 18.7929 55.9558 19.2923 56.3202 19.723L57.0836 19.077ZM70.9019 19.38C70.6165 19.38 70.368 19.279 70.1354 19.0464L69.4283 19.7536C69.8358 20.161 70.3339 20.38 70.9019 20.38V19.38ZM70.1689 19.0834C70.0047 18.8828 69.8844 18.595 69.8388 18.1848L68.8449 18.2952C68.906 18.845 69.079 19.3306 69.3949 19.7166L70.1689 19.0834ZM69.8419 18.24C69.8419 17.972 69.9375 17.6912 70.175 17.3889L69.3887 16.7711C69.0396 17.2154 68.8419 17.708 68.8419 18.24H69.8419ZM70.1049 17.4617C70.3675 17.2394 70.6414 17.14 70.9419 17.14V16.14C70.389 16.14 69.8896 16.3339 69.4589 16.6983L70.1049 17.4617ZM70.9419 17.14C71.1969 17.14 71.4722 17.2388 71.7765 17.4996L72.4273 16.7404C71.9849 16.3612 71.4869 16.14 70.9419 16.14V17.14ZM71.7333 17.4579C71.9507 17.695 72.0634 17.9606 72.0828 18.2712L73.0809 18.2088C73.047 17.6661 72.8398 17.185 72.4705 16.7821L71.7333 17.4579ZM72.0819 18.24C72.0819 18.5273 71.979 18.796 71.7345 19.0609L72.4693 19.7391C72.8648 19.3107 73.0819 18.8061 73.0819 18.24H72.0819ZM71.7483 19.0464C71.5282 19.2665 71.2582 19.38 70.9019 19.38V20.38C71.5056 20.38 72.0355 20.1735 72.4554 19.7536L71.7483 19.0464ZM51.7049 12.4239C52.17 11.9329 52.6314 11.5104 53.0888 11.1547L52.4749 10.3653C51.9723 10.7562 51.4738 11.2138 50.9789 11.7361L51.7049 12.4239ZM53.102 11.1441C53.5495 10.7712 54.0178 10.4761 54.5071 10.256L54.0967 9.34404C53.5192 9.60389 52.9743 9.94881 52.4618 10.3759L53.102 11.1441ZM54.5159 10.2519C54.9868 10.0288 55.4679 9.86869 55.9599 9.77029L55.7638 8.78971C55.1892 8.90464 54.6303 9.09117 54.0878 9.34813L54.5159 10.2519ZM55.9599 9.77029C56.4665 9.66897 57.0012 9.60509 57.5646 9.57948L57.5192 8.58051C56.9092 8.60824 56.3239 8.6777 55.7638 8.78971L55.9599 9.77029ZM57.5419 9.58C58.5728 9.58 59.5185 9.76824 60.3849 10.1396L60.7788 9.22043C59.7786 8.79176 58.6977 8.58 57.5419 8.58V9.58ZM60.369 10.1324C60.7976 10.3341 61.1845 10.5592 61.5313 10.8069L62.1125 9.99313C61.7126 9.70746 61.2729 9.45258 60.7948 9.22759L60.369 10.1324ZM61.5646 10.8287C61.9207 11.0424 62.2579 11.3182 62.5755 11.6602L63.3083 10.9798C62.9325 10.5751 62.523 10.2376 62.0791 9.97125L61.5646 10.8287ZM62.5702 11.6545C62.7948 11.904 63.0364 12.2086 63.295 12.5706L64.1087 11.9894C63.834 11.6047 63.569 11.2693 63.3135 10.9855L62.5702 11.6545ZM63.3056 12.5849C63.552 12.9052 63.8183 13.322 64.1038 13.841L64.98 13.359C64.6787 12.8113 64.3851 12.3481 64.0982 11.9751L63.3056 12.5849ZM64.9875 13.8267C65.7249 12.3774 66.676 11.337 67.8309 10.6736L67.3328 9.80645C65.9811 10.583 64.9055 11.7826 64.0962 13.3733L64.9875 13.8267ZM67.8419 10.6671C68.987 9.97007 70.2564 9.62 71.6619 9.62V8.62C70.0807 8.62 68.6301 9.0166 67.3219 9.8129L67.8419 10.6671ZM71.6685 9.61996C73.5523 9.59484 75.2117 10.1691 76.6671 11.3485L77.2967 10.5715C75.6587 9.24422 73.7715 8.59183 71.6552 8.62004L71.6685 9.61996ZM76.6656 11.3472C78.4338 12.7917 79.3219 14.7249 79.3219 17.2H80.3219C80.3219 14.4484 79.3167 12.2217 77.2982 10.5728L76.6656 11.3472ZM79.3219 17.2C79.3219 18.2711 79.0856 19.3638 78.6028 20.4818L79.5209 20.8782C80.0515 19.6495 80.3219 18.4223 80.3219 17.2H79.3219ZM78.5984 20.4924C78.1733 21.5426 77.1454 23.1353 75.4672 25.293L76.2566 25.907C77.9383 23.7447 79.0437 22.0574 79.5254 20.8676L78.5984 20.4924ZM75.701 26.0734L79.821 27.4734L80.1427 26.5266L76.0227 25.1266L75.701 26.0734ZM79.9819 26.5H72.6619V27.5H79.9819V26.5ZM73.0601 27.3024C75.2507 24.4172 76.756 22.1445 77.552 20.4976L76.6517 20.0624C75.9011 21.6155 74.4464 23.8228 72.2636 26.6976L73.0601 27.3024ZM77.552 20.4978C77.9881 19.5964 78.2019 18.6009 78.2019 17.52H77.2019C77.2019 18.4658 77.0157 19.3102 76.6518 20.0622L77.552 20.4978ZM78.2019 17.52C78.2019 15.5876 77.5717 13.9627 76.2954 12.6864L75.5883 13.3936C76.6587 14.464 77.2019 15.8257 77.2019 17.52H78.2019ZM76.2914 12.6825C74.9982 11.418 73.4219 10.7687 71.5897 10.7401L71.5741 11.7399C73.1552 11.7646 74.4855 12.3153 75.5923 13.3975L76.2914 12.6825ZM71.5819 10.74C70.53 10.74 69.502 11.0185 68.5033 11.5606L68.9804 12.4394C69.8485 11.9682 70.7138 11.74 71.5819 11.74V10.74ZM68.5079 11.5581C68.0307 11.8108 67.6137 12.0826 67.2618 12.3759L67.902 13.1441C68.1901 12.904 68.5464 12.6692 68.9758 12.4419L68.5079 11.5581ZM67.2618 12.3759C66.9002 12.6772 66.587 13.0363 66.3213 13.4496L67.1625 13.9904C67.3768 13.657 67.6235 13.3761 67.902 13.1441L67.2618 12.3759ZM66.3234 13.4464C65.8303 14.2005 65.4889 15.0753 65.2916 16.0619L66.2722 16.2581C66.4482 15.3781 66.7467 14.6262 67.1604 13.9936L66.3234 13.4464ZM65.2938 16.0515C65.2326 16.3268 65.1904 16.6751 65.163 17.0867L66.1608 17.1533C66.1867 16.7649 66.2245 16.4732 66.27 16.2685L65.2938 16.0515ZM65.163 17.0867C65.1354 17.5007 65.1219 17.9789 65.1219 18.52H66.1219C66.1219 17.9944 66.135 17.5393 66.1608 17.1533L65.163 17.0867ZM65.1219 18.52V22.16H66.1219V18.52H65.1219ZM65.1219 22.16C65.1219 23.2145 65.1716 23.9969 65.304 24.427L66.2598 24.133C66.1788 23.8698 66.1219 23.2389 66.1219 22.16H65.1219ZM65.2938 24.3885C65.4192 24.9528 65.684 25.4756 66.0738 25.9553L66.8499 25.3247C66.5464 24.9511 66.3579 24.5672 66.27 24.1715L65.2938 24.3885ZM66.0902 25.9745C66.6325 26.577 67.3806 27.0674 68.3066 27.4603L68.6972 26.5397C67.8632 26.1859 67.2512 25.7696 66.8335 25.3055L66.0902 25.9745ZM68.5019 26.5H60.9019V27.5H68.5019V26.5ZM61.07 27.4709C62.2106 27.0635 63.074 26.5662 63.5145 25.9223L62.6892 25.3577C62.4364 25.7272 61.8332 26.1365 60.7337 26.5291L61.07 27.4709ZM63.5145 25.9223C63.9493 25.2869 64.1219 24.3326 64.1219 23.16H63.1219C63.1219 24.2808 62.9478 24.9797 62.6892 25.3577L63.5145 25.9223ZM64.1219 23.16V18.24H63.1219V23.16H64.1219ZM64.1219 18.24C64.1219 15.9343 63.4946 14.0532 62.1866 12.658L61.4571 13.342C62.5491 14.5068 63.1219 16.1191 63.1219 18.24H64.1219ZM62.1869 12.6583C60.9214 11.3065 59.3636 10.62 57.5419 10.62V11.62C59.0802 11.62 60.3757 12.1869 61.4569 13.3417L62.1869 12.6583ZM57.557 10.6202C56.6051 10.5914 55.7244 10.7646 54.925 11.1495L55.3588 12.0505C55.9994 11.7421 56.7186 11.5953 57.5267 11.6198L57.557 10.6202ZM54.925 11.1495C54.1409 11.527 53.4244 12.0744 52.7739 12.7815L53.5098 13.4585C54.086 12.8322 54.7029 12.3663 55.3588 12.0505L54.925 11.1495ZM52.7665 12.7897C51.4823 14.249 50.8819 16.3611 50.8819 19.04H51.8819C51.8819 16.4922 52.4548 14.6576 53.5172 13.4503L52.7665 12.7897ZM50.8819 19.04V22.56H51.8819V19.04H50.8819ZM50.8819 22.56C50.8819 23.8532 51.0989 24.9088 51.6114 25.6455L52.4323 25.0745C52.0915 24.5846 51.8819 23.7735 51.8819 22.56H50.8819ZM51.6198 25.6572C52.1584 26.3859 53.1198 26.9755 54.4031 27.4669L54.7607 26.5331C53.5373 26.0645 52.792 25.5608 52.424 25.0628L51.6198 25.6572ZM54.5819 26.5H46.5019V27.5H54.5819V26.5ZM46.7138 27.4528C47.3559 27.1523 47.8929 26.8554 48.3172 26.5606C48.7364 26.2693 49.0739 25.9607 49.2846 25.627L48.4391 25.093C48.3299 25.266 48.114 25.4841 47.7465 25.7394C47.3841 25.9912 46.9012 26.261 46.2899 26.5472L46.7138 27.4528ZM49.2779 25.6373C49.4931 25.3146 49.6291 24.8868 49.7145 24.3957C49.8011 23.8978 49.8419 23.297 49.8419 22.6H48.8419C48.8419 23.263 48.8027 23.8022 48.7293 24.2243C48.6547 24.6532 48.5507 24.9254 48.4459 25.0826L49.2779 25.6373ZM49.8419 22.6V14.6H48.8419V22.6H49.8419ZM49.8419 14.6C49.8419 13.8782 49.8046 13.2549 49.7263 12.7355C49.6489 12.2219 49.5272 11.7794 49.34 11.439L48.4638 11.921C48.5699 12.1139 48.6682 12.4247 48.7375 12.8845C48.8059 13.3384 48.8419 13.9085 48.8419 14.6H49.8419ZM49.336 11.4319C48.9439 10.7458 48.1049 10.0905 46.9456 9.4434L46.4582 10.3166C47.5922 10.9495 48.2198 11.4942 48.4678 11.9281L49.336 11.4319ZM46.7301 10.3792C48.1429 10.2992 49.149 10.2183 49.7326 10.135L49.5912 9.14503C49.0548 9.22165 48.0876 9.30076 46.6736 9.3808L46.7301 10.3792ZM49.7513 10.1319C50.0329 10.0807 50.2996 10.0427 50.5516 10.0175L50.4521 9.02248C50.1708 9.05062 49.8775 9.0926 49.5724 9.14806L49.7513 10.1319ZM50.5999 10.0103C50.8791 9.95446 51.1703 9.88506 51.4734 9.80238L51.2103 8.83762C50.9268 8.91494 50.658 8.97887 50.4038 9.02971L50.5999 10.0103ZM50.8419 9.32V12.08H51.8419V9.32H50.8419ZM93.3856 17.12L93.7392 16.7664L93.7256 16.7529L93.711 16.7404L93.3856 17.12ZM93.3856 19.4L93.7392 19.7536L93.7469 19.7459L93.7542 19.7379L93.3856 19.4ZM91.1056 19.4L91.4592 19.0464L91.1056 19.4ZM91.1056 17.12L91.4592 17.4736L91.4752 17.4575L91.4897 17.4401L91.1056 17.12ZM98.4256 14.8L97.9826 15.0321L97.9875 15.041L98.4256 14.8ZM95.8656 12.24L95.6176 12.6741L95.6255 12.6787L95.6336 12.6829L95.8656 12.24ZM88.7056 12.24L88.4619 11.8034L88.4586 11.8053L88.7056 12.24ZM86.0256 14.84L86.4563 15.094L86.4591 15.0892L86.0256 14.84ZM86.0656 21.8L86.5087 21.5679L86.5022 21.5563L86.0656 21.8ZM88.6656 24.44L88.9197 24.0092L88.9093 24.0034L88.6656 24.44ZM97.1856 23.28L97.5358 23.6369L97.5392 23.6336L97.1856 23.28ZM99.4256 23.96H99.9256V22.541L99.0361 23.6466L99.4256 23.96ZM92.2256 27.52V28.0201L92.2347 28.0199L92.2256 27.52ZM87.5856 26.28L87.8381 25.8483L87.8284 25.8429L87.5856 26.28ZM84.1856 22.84L84.6232 22.5978L84.6172 22.5876L84.1856 22.84ZM83.2256 15.96L82.7406 15.8387L83.2256 15.96ZM84.1456 13.72L84.5798 13.9681L84.5823 13.9635L84.1456 13.72ZM87.5456 10.32L87.3027 9.88278L87.2918 9.88923L87.5456 10.32ZM89.7456 9.44L89.6283 8.95394L89.6244 8.95493L89.7456 9.44ZM92.1456 9.12V8.62H92.1376L92.1295 8.62026L92.1456 9.12ZM96.1456 10.04L95.9401 10.4958L95.9417 10.4965L96.1456 10.04ZM99.4256 12.56L99.0415 12.8801L99.9256 13.941V12.56H99.4256ZM99.4256 8.76L99.6923 8.33704L98.9256 7.85371V8.76H99.4256ZM103.706 10.04L103.929 10.4872L105.635 9.63428L103.73 9.5406L103.706 10.04ZM102.106 11L102.418 11.3904L102.44 11.3731L102.459 11.3536L102.106 11ZM101.746 11.36L101.355 11.0477L101.334 11.0739L101.317 11.1028L101.746 11.36ZM101.506 11.84L101.046 11.643L101.041 11.6559L101.036 11.6691L101.506 11.84ZM101.986 25.56L102.404 25.2869L102.4 25.2806L102.396 25.2745L101.986 25.56ZM104.146 27V27.5L104.304 26.5257L104.146 27ZM99.4256 27H98.9256V27.5H99.4256V27ZM92.2256 17.14C92.4806 17.14 92.7559 17.2388 93.0602 17.4996L93.711 16.7404C93.2686 16.3612 92.7706 16.14 92.2256 16.14V17.14ZM93.0321 17.4736C93.2225 17.664 93.3256 17.9057 93.3256 18.24H94.3256C94.3256 17.6676 94.1354 17.1627 93.7392 16.7664L93.0321 17.4736ZM93.3256 18.24C93.3256 18.5743 93.2218 18.8387 93.0171 19.0621L93.7542 19.7379C94.1361 19.3213 94.3256 18.8123 94.3256 18.24H93.3256ZM93.0321 19.0464C92.806 19.2725 92.5466 19.38 92.2256 19.38V20.38C92.8113 20.38 93.3252 20.1675 93.7392 19.7536L93.0321 19.0464ZM92.2256 19.38C91.9402 19.38 91.6917 19.279 91.4592 19.0464L90.7521 19.7536C91.1595 20.161 91.6577 20.38 92.2256 20.38V19.38ZM91.4592 19.0464C91.2331 18.8204 91.1256 18.561 91.1256 18.24H90.1256C90.1256 18.8257 90.3381 19.3396 90.7521 19.7536L91.4592 19.0464ZM91.1256 18.24C91.1256 17.9546 91.2266 17.7061 91.4592 17.4736L90.7521 16.7664C90.3446 17.1739 90.1256 17.6721 90.1256 18.24H91.1256ZM91.4897 17.4401C91.6463 17.2522 91.8688 17.14 92.2256 17.14V16.14C91.6225 16.14 91.0982 16.3478 90.7215 16.7999L91.4897 17.4401ZM99.8056 18.24C99.8056 16.9298 99.4913 15.7001 98.8637 14.559L97.9875 15.041C98.5333 16.0332 98.8056 17.0969 98.8056 18.24H99.8056ZM98.8685 14.568C98.2347 13.3579 97.3078 12.431 96.0976 11.7971L95.6336 12.6829C96.6635 13.2224 97.4433 14.0021 97.9827 15.032L98.8685 14.568ZM96.1137 11.8059C94.9222 11.125 93.6639 10.78 92.3456 10.78V11.78C93.4807 11.78 94.5691 12.075 95.6176 12.6741L96.1137 11.8059ZM92.3456 10.78C90.978 10.78 89.6811 11.1229 88.4619 11.8034L88.9493 12.6766C90.0235 12.077 91.1532 11.78 92.3456 11.78V10.78ZM88.4586 11.8053C87.2154 12.5116 86.2542 13.4394 85.5922 14.5908L86.4591 15.0892C87.0237 14.1073 87.8492 13.3017 88.9526 12.6747L88.4586 11.8053ZM85.5949 14.586C84.9345 15.706 84.6056 16.9409 84.6056 18.28H85.6056C85.6056 17.1124 85.8901 16.054 86.4563 15.094L85.5949 14.586ZM84.6056 18.28C84.6056 19.5732 84.9515 20.8297 85.629 22.0437L86.5022 21.5563C85.8998 20.4769 85.6056 19.3868 85.6056 18.28H84.6056ZM85.6227 22.032C86.2563 23.2416 87.1938 24.1912 88.4219 24.8766L88.9093 24.0034C87.8441 23.4088 87.0483 22.5984 86.5085 21.568L85.6227 22.032ZM88.4116 24.8707C89.5333 25.5322 90.7819 25.86 92.1456 25.86V24.86C90.9494 24.86 89.878 24.5745 88.9196 24.0093L88.4116 24.8707ZM92.1456 25.86C94.2257 25.86 96.0308 25.1135 97.5358 23.6369L96.8355 22.9231C95.5138 24.2198 93.9588 24.86 92.1456 24.86V25.86ZM97.5392 23.6336C99.0435 22.1293 99.8056 20.3232 99.8056 18.24H98.8056C98.8056 20.0501 98.1544 21.6041 96.8321 22.9264L97.5392 23.6336ZM99.0361 23.6466C97.2607 25.8531 94.9991 26.9695 92.2165 27.0201L92.2347 28.0199C95.3188 27.9638 97.8572 26.7069 99.8152 24.2734L99.0361 23.6466ZM92.2256 27.02C90.6319 27.02 89.1728 26.6291 87.8381 25.8484L87.3332 26.7116C88.8252 27.5843 90.4593 28.02 92.2256 28.02V27.02ZM87.8284 25.8429C86.4734 25.0901 85.4061 24.0124 84.6231 22.5978L83.7482 23.0822C84.6185 24.6543 85.8179 25.8699 87.3428 26.7171L87.8284 25.8429ZM84.6172 22.5876C83.8358 21.2516 83.4456 19.8055 83.4456 18.24H82.4456C82.4456 19.9811 82.8821 21.6017 83.754 23.0924L84.6172 22.5876ZM83.4456 18.24C83.4456 17.5073 83.534 16.7881 83.7107 16.0813L82.7406 15.8387C82.5439 16.6252 82.4456 17.426 82.4456 18.24H83.4456ZM83.7107 16.0813C83.885 15.3839 84.1732 14.6796 84.5798 13.9681L83.7115 13.4719C83.2648 14.2537 82.9395 15.0428 82.7406 15.8387L83.7107 16.0813ZM84.5823 13.9635C85.3085 12.6614 86.3754 11.59 87.7995 10.7508L87.2918 9.88923C85.7292 10.81 84.5294 12.0052 83.7089 13.4765L84.5823 13.9635ZM87.7884 10.7571C88.4729 10.3768 89.1655 10.1004 89.8669 9.92507L89.6244 8.95493C88.8324 9.15292 88.0584 9.46316 87.3028 9.88292L87.7884 10.7571ZM89.8629 9.92604C90.6018 9.74769 91.3678 9.64535 92.1617 9.61974L92.1295 8.62026C91.2701 8.64798 90.4361 8.75897 89.6283 8.95396L89.8629 9.92604ZM92.1456 9.62C93.372 9.62 94.6355 9.90747 95.9401 10.4958L96.3512 9.58421C94.9357 8.94586 93.5326 8.62 92.1456 8.62V9.62ZM95.9417 10.4965C97.121 11.0235 98.1539 11.815 99.0415 12.8801L99.8097 12.2399C98.8307 11.065 97.6769 10.1765 96.3496 9.58349L95.9417 10.4965ZM99.9256 12.56V8.76H98.9256V12.56H99.9256ZM99.159 9.18296C100.467 10.0076 101.979 10.4557 103.681 10.5394L103.73 9.5406C102.179 9.4643 100.838 9.05906 99.6923 8.33704L99.159 9.18296ZM103.482 9.59278C103.049 9.80917 102.69 10.0022 102.408 10.1713C102.135 10.335 101.904 10.4941 101.752 10.6464L102.459 11.3536C102.52 11.2925 102.662 11.185 102.923 11.0287C103.174 10.8778 103.509 10.6975 103.929 10.4872L103.482 9.59278ZM101.793 10.6096C101.631 10.7393 101.485 10.8855 101.355 11.0477L102.136 11.6723C102.22 11.5678 102.313 11.474 102.418 11.3904L101.793 10.6096ZM101.317 11.1028C101.222 11.2603 101.132 11.4415 101.046 11.643L101.965 12.037C102.039 11.8652 102.109 11.7264 102.174 11.6172L101.317 11.1028ZM101.036 11.6691C100.895 12.0563 100.846 12.7009 100.846 13.52H101.846C101.846 12.6858 101.903 12.2103 101.976 12.0109L101.036 11.6691ZM100.846 13.52V22.56H101.846V13.52H100.846ZM100.846 22.56C100.846 23.9736 101.058 25.1027 101.575 25.8455L102.396 25.2745C102.059 24.7906 101.846 23.9197 101.846 22.56H100.846ZM101.567 25.8331C102.053 26.5779 102.891 27.109 103.988 27.4743L104.304 26.5257C103.32 26.1977 102.719 25.7687 102.404 25.2869L101.567 25.8331ZM104.146 26.5H99.4256V27.5H104.146V26.5ZM99.9256 27V23.96H98.9256V27H99.9256ZM109.354 26.76L108.966 26.4447L108.961 26.4511L109.354 26.76ZM107.234 26.8L106.844 27.1123L106.855 27.1262L106.867 27.1391L107.234 26.8ZM107.274 23.84L107.641 24.1802L107.653 24.1667L107.665 24.1523L107.274 23.84ZM109.434 23.76L109.828 23.4511L109.809 23.4276L109.788 23.4064L109.434 23.76ZM109.374 25.2C109.374 25.7126 109.232 26.1175 108.966 26.4447L109.742 27.0753C110.17 26.5491 110.374 25.9141 110.374 25.2H109.374ZM108.961 26.4511C108.743 26.729 108.531 26.82 108.314 26.82V27.82C108.897 27.82 109.379 27.5377 109.748 27.0689L108.961 26.4511ZM108.314 26.82C108.079 26.82 107.846 26.725 107.602 26.4609L106.867 27.1391C107.263 27.5683 107.75 27.82 108.314 27.82V26.82ZM107.625 26.4877C107.386 26.189 107.254 25.8105 107.254 25.32H106.254C106.254 26.0029 106.443 26.611 106.844 27.1123L107.625 26.4877ZM107.254 25.32C107.254 24.8057 107.397 24.4429 107.641 24.1802L106.908 23.4998C106.459 23.9838 106.254 24.6077 106.254 25.32H107.254ZM107.665 24.1523C107.911 23.8445 108.15 23.74 108.394 23.74V22.74C107.785 22.74 107.278 23.0355 106.884 23.5277L107.665 24.1523ZM108.394 23.74C108.562 23.74 108.789 23.8214 109.081 24.1136L109.788 23.4064C109.387 23.0053 108.92 22.74 108.394 22.74V23.74ZM109.041 24.0689C109.25 24.335 109.374 24.6983 109.374 25.2H110.374C110.374 24.5284 110.205 23.9317 109.828 23.4511L109.041 24.0689ZM119.878 9.6L120.064 10.0642L119.878 9.1V9.6ZM118.558 10.28L118.82 10.7058L118.832 10.6988L118.843 10.6911L118.558 10.28ZM117.718 11L117.328 10.6877L117.323 10.6938L117.318 10.7L117.718 11ZM118.078 18.48L118.566 18.3705L118.564 18.3622L118.078 18.48ZM120.598 24.32L120.986 24.0041L120.979 23.9953L120.598 24.32ZM123.758 24.8L124.124 25.1412L124.126 25.1385L123.758 24.8ZM125.598 20.68L126.078 20.8214L126.08 20.8132L125.598 20.68ZM125.878 11.12L125.436 11.352L125.448 11.3754L125.462 11.3974L125.878 11.12ZM123.878 9.6V9.1L123.679 10.0583L123.878 9.6ZM130.558 9.6L130.772 10.0521L130.558 9.1V9.6ZM128.678 10.96L128.259 10.6884L128.678 10.96ZM128.598 17.72L128.104 17.793L128.105 17.7996L128.598 17.72ZM129.038 20.04L128.55 20.1485L128.552 20.157L128.554 20.1655L129.038 20.04ZM129.718 22.08L130.188 21.9091L130.184 21.8983L130.18 21.8877L129.718 22.08ZM130.678 24.12L130.262 24.3974L130.267 24.4041L130.272 24.4106L130.678 24.12ZM131.598 25.08L131.294 25.4763L131.311 25.4899L131.33 25.5018L131.598 25.08ZM133.078 25.32L132.996 24.8268L133.078 25.32ZM133.598 25.12L133.847 25.5541L133.857 25.5482L133.867 25.5418L133.598 25.12ZM134.678 23.88L135.094 24.1573L134.678 23.88ZM135.278 22.64L134.818 22.446L134.813 22.4565L134.809 22.4671L135.278 22.64ZM135.958 20.8L136.433 20.9582L136.436 20.947L135.958 20.8ZM136.558 18.52L137.046 18.6301L137.047 18.6268L136.558 18.52ZM137.078 15.76L136.587 15.6689L136.585 15.68L137.078 15.76ZM137.318 13.88L136.821 13.8326L136.82 13.8438L136.819 13.855L137.318 13.88ZM136.878 10.92L136.466 11.2033L136.478 11.2198L136.49 11.2353L136.878 10.92ZM135.038 9.6V9.1L134.82 10.0498L135.038 9.6ZM141.598 9.6L141.85 10.0324L143.455 9.1H141.598V9.6ZM139.878 11.16L140.307 11.4173L140.313 11.4081L139.878 11.16ZM139.038 14.2L139.532 14.2807L139.532 14.2793L139.038 14.2ZM137.598 20.92L137.119 20.7777L137.118 20.7806L137.598 20.92ZM135.958 24.96L135.528 24.706L135.527 24.7081L135.958 24.96ZM134.238 27L134.511 27.4193L134.52 27.4131L134.238 27ZM130.118 26.32L130.484 25.9788L130.478 25.9725L130.472 25.9664L130.118 26.32ZM128.678 24.04L128.22 24.2385L128.678 24.04ZM127.438 20.32L127.921 20.1906L126.949 20.2182L127.438 20.32ZM124.878 26.36L125.245 26.6997L125.252 26.693L125.258 26.686L124.878 26.36ZM122.398 27.52V28.02H122.412L122.425 28.0193L122.398 27.52ZM120.918 27.16L121.142 26.7128L121.131 26.7071L121.119 26.7019L120.918 27.16ZM119.518 26.04L119.889 25.7045L119.881 25.6961L119.518 26.04ZM117.958 23.52L118.41 23.3046L118.41 23.3043L117.958 23.52ZM117.118 21.4L117.593 21.2419L117.118 21.4ZM116.318 18.68L115.832 18.7958L115.835 18.8072L116.318 18.68ZM115.878 16.64L115.385 16.7222L115.387 16.7302L115.388 16.7381L115.878 16.64ZM115.438 13.88L114.942 13.9443L114.944 13.956L115.438 13.88ZM114.678 11L115.094 10.7226L115.089 10.7149L115.084 10.7073L114.678 11ZM112.718 9.6V9.1L112.505 10.0521L112.718 9.6ZM119.693 9.13576C119.136 9.35839 118.66 9.60142 118.274 9.8689L118.843 10.6911C119.15 10.4786 119.554 10.2683 120.064 10.0642L119.693 9.13576ZM118.296 9.85417C117.91 10.092 117.583 10.3684 117.328 10.6877L118.109 11.3123C118.28 11.0983 118.514 10.8946 118.82 10.7058L118.296 9.85417ZM117.318 10.7C116.851 11.3235 116.618 12.0431 116.618 12.84H117.618C117.618 12.2502 117.786 11.7431 118.118 11.3L117.318 10.7ZM116.618 12.84C116.618 14.0261 116.953 15.9584 117.593 18.5978L118.564 18.3622C117.924 15.7216 117.618 13.8939 117.618 12.84H116.618ZM117.591 18.5895C118.186 21.2401 119.05 23.2767 120.218 24.6447L120.979 23.9953C119.96 22.8033 119.145 20.9465 118.566 18.3705L117.591 18.5895ZM120.211 24.6358C120.848 25.4179 121.59 25.9 122.438 25.9V24.9C122.007 24.9 121.522 24.6621 120.986 24.0042L120.211 24.6358ZM122.438 25.9C123.096 25.9 123.665 25.6334 124.124 25.1412L123.393 24.4588C123.106 24.7666 122.795 24.9 122.438 24.9V25.9ZM124.126 25.1385C124.827 24.3775 125.465 22.8996 126.078 20.8214L125.119 20.5386C124.505 22.6204 123.917 23.8892 123.39 24.4615L124.126 25.1385ZM126.08 20.8132C126.654 18.738 126.938 16.4926 126.938 14.08H125.938C125.938 16.414 125.663 18.5687 125.117 20.5468L126.08 20.8132ZM126.938 14.08C126.938 12.6555 126.757 11.5357 126.294 10.8426L125.462 11.3974C125.747 11.8243 125.938 12.6778 125.938 14.08H126.938ZM126.321 10.888C125.947 10.1735 125.149 9.60839 124.078 9.14165L123.679 10.0583C124.688 10.4983 125.223 10.9465 125.436 11.352L126.321 10.888ZM123.878 10.1H130.558V9.1H123.878V10.1ZM130.345 9.14787C129.368 9.60917 128.632 10.1118 128.259 10.6884L129.098 11.2316C129.312 10.9016 129.829 10.4975 130.772 10.0521L130.345 9.14787ZM128.259 10.6884C127.886 11.264 127.738 12.0889 127.738 13.08H128.738C128.738 12.1511 128.884 11.5627 129.098 11.2316L128.259 10.6884ZM127.738 13.08C127.738 14.5738 127.861 16.145 128.104 17.793L129.093 17.647C128.856 16.0417 128.738 14.5195 128.738 13.08H127.738ZM128.105 17.7996C128.24 18.6347 128.388 19.4177 128.55 20.1485L129.527 19.9315C129.369 19.2223 129.224 18.4586 129.092 17.6404L128.105 17.7996ZM128.554 20.1655C128.747 20.9066 128.981 21.6091 129.257 22.2723L130.18 21.8877C129.923 21.2709 129.704 20.6134 129.522 19.9145L128.554 20.1655ZM129.249 22.2509C129.575 23.1482 129.911 23.8701 130.262 24.3974L131.094 23.8427C130.806 23.4099 130.502 22.7718 130.188 21.9091L129.249 22.2509ZM130.272 24.4106C130.565 24.822 130.906 25.1782 131.294 25.4763L131.903 24.6837C131.598 24.4485 131.325 24.1646 131.085 23.8294L130.272 24.4106ZM131.33 25.5018C131.703 25.7394 132.116 25.86 132.558 25.86V24.86C132.307 24.86 132.08 24.7939 131.867 24.6582L131.33 25.5018ZM132.558 25.86C132.769 25.86 132.97 25.845 133.161 25.8132L132.996 24.8268C132.867 24.8483 132.722 24.86 132.558 24.86V25.86ZM133.161 25.8132C133.395 25.7742 133.624 25.6811 133.847 25.5541L133.35 24.6859C133.199 24.7722 133.082 24.8125 132.996 24.8268L133.161 25.8132ZM133.867 25.5418C134.256 25.2942 134.665 24.8018 135.094 24.1573L134.262 23.6026C133.839 24.2382 133.528 24.5724 133.33 24.6982L133.867 25.5418ZM135.094 24.1573C135.336 23.7946 135.552 23.3428 135.748 22.8129L134.809 22.4671C134.631 22.9506 134.447 23.3254 134.262 23.6026L135.094 24.1573ZM135.739 22.834C135.959 22.3121 136.19 21.6861 136.433 20.9581L135.484 20.6419C135.247 21.3539 135.025 21.9546 134.818 22.446L135.739 22.834ZM136.436 20.947C136.654 20.2397 136.857 19.4672 137.046 18.6301L136.071 18.4099C135.886 19.2261 135.69 19.9736 135.481 20.653L136.436 20.947ZM137.047 18.6268C137.236 17.7635 137.411 16.8344 137.572 15.84L136.585 15.68C136.426 16.6589 136.254 17.5699 136.07 18.4132L137.047 18.6268ZM137.57 15.851C137.706 15.1166 137.79 14.4669 137.818 13.905L136.819 13.855C136.794 14.3598 136.717 14.9634 136.587 15.669L137.57 15.851ZM137.816 13.9274C137.87 13.3587 137.898 12.8749 137.898 12.48H136.898C136.898 12.8317 136.873 13.2813 136.821 13.8326L137.816 13.9274ZM137.898 12.48C137.898 11.7659 137.694 11.1309 137.266 10.6047L136.49 11.2353C136.756 11.5625 136.898 11.9674 136.898 12.48H137.898ZM137.29 10.6367C136.919 10.0971 136.204 9.61049 135.257 9.15025L134.82 10.0498C135.739 10.4962 136.251 10.8895 136.466 11.2033L137.29 10.6367ZM135.038 10.1H141.598V9.1H135.038V10.1ZM141.347 9.1676C140.479 9.672 139.824 10.2472 139.444 10.9119L140.313 11.4081C140.573 10.9528 141.065 10.488 141.85 10.0324L141.347 9.1676ZM139.45 10.9028C139.075 11.5277 138.784 12.6294 138.545 14.1207L139.532 14.2793C139.772 12.7839 140.042 11.859 140.307 11.4172L139.45 10.9028ZM138.545 14.1193C138.093 16.8823 137.617 19.0993 137.119 20.7777L138.078 21.0623C138.593 19.3273 139.077 17.0644 139.532 14.2807L138.545 14.1193ZM137.118 20.7806C136.645 22.4093 136.113 23.7136 135.528 24.706L136.389 25.214C137.031 24.1264 137.591 22.7374 138.079 21.0594L137.118 20.7806ZM135.527 24.7081C134.985 25.6364 134.457 26.2458 133.957 26.5869L134.52 27.4131C135.193 26.9542 135.812 26.2036 136.39 25.2119L135.527 24.7081ZM133.966 26.5808C133.502 26.8821 133.049 27.02 132.598 27.02V28.02C133.268 28.02 133.908 27.8112 134.511 27.4192L133.966 26.5808ZM132.598 27.02C131.859 27.02 131.157 26.7002 130.484 25.9788L129.753 26.6612C130.573 27.5398 131.525 28.02 132.598 28.02V27.02ZM130.472 25.9664C129.998 25.4924 129.549 24.793 129.137 23.8415L128.22 24.2385C128.661 25.2603 129.172 26.081 129.765 26.6736L130.472 25.9664ZM129.137 23.8415C128.724 22.8846 128.318 21.6697 127.921 20.1906L126.955 20.4494C127.359 21.957 127.78 23.222 128.22 24.2385L129.137 23.8415ZM126.949 20.2182C126.397 22.8711 125.568 24.7912 124.499 26.034L125.258 26.686C126.482 25.2621 127.36 23.1556 127.928 20.4218L126.949 20.2182ZM124.512 26.0203C123.934 26.6442 123.229 26.9744 122.371 27.0207L122.425 28.0193C123.541 27.959 124.49 27.5158 125.245 26.6997L124.512 26.0203ZM122.398 27.02C121.974 27.02 121.557 26.9202 121.142 26.7128L120.695 27.6072C121.24 27.8798 121.81 28.02 122.398 28.02V27.02ZM121.119 26.7019C120.785 26.5559 120.374 26.2408 119.889 25.7045L119.148 26.3755C119.676 26.9592 120.199 27.3908 120.718 27.6181L121.119 26.7019ZM119.881 25.6961C119.456 25.2472 118.963 24.4641 118.41 23.3046L117.507 23.7354C118.074 24.9226 118.621 25.8195 119.155 26.3839L119.881 25.6961ZM118.41 23.3043C118.127 22.7135 117.854 22.0267 117.593 21.2419L116.644 21.5581C116.916 22.3733 117.203 23.0999 117.507 23.7357L118.41 23.3043ZM117.593 21.2419C117.33 20.4542 117.067 19.5581 116.802 18.5528L115.835 18.8072C116.104 19.8286 116.373 20.7458 116.644 21.5581L117.593 21.2419ZM116.805 18.5642C116.673 18.0119 116.528 17.3382 116.369 16.5419L115.388 16.7381C115.549 17.5418 115.697 18.2281 115.832 18.7958L116.805 18.5642ZM116.372 16.5578C116.239 15.7604 116.092 14.8425 115.933 13.804L114.944 13.956C115.104 14.9975 115.251 15.9196 115.385 16.7222L116.372 16.5578ZM115.934 13.8157C115.839 13.0832 115.726 12.4603 115.592 11.9524C115.46 11.4517 115.299 11.03 115.094 10.7226L114.262 11.2773C114.377 11.45 114.504 11.7483 114.625 12.2076C114.744 12.6597 114.851 13.2368 114.943 13.9443L115.934 13.8157ZM115.084 10.7073C114.662 10.1238 113.916 9.6128 112.932 9.14787L112.505 10.0521C113.44 10.4939 114.001 10.9162 114.273 11.2927L115.084 10.7073ZM112.718 10.1H119.878V9.1H112.718V10.1ZM148.007 22.52L148.332 22.8996L149.72 21.7099L147.92 22.0276L148.007 22.52ZM146.847 23.28L147.237 23.5923L147.242 23.5862L147.247 23.58L146.847 23.28ZM146.367 24.68L146.867 24.6978L146.867 24.6889V24.68H146.367ZM147.287 26.72L146.941 27.081L146.95 27.0894L146.959 27.0973L147.287 26.72ZM152.167 26.44L151.827 26.0731L151.826 26.0741L152.167 26.44ZM151.807 20.64L152.161 20.2863L152.15 20.2768L151.807 20.64ZM144.567 20.68L144.213 20.3264L144.567 20.68ZM143.087 24.32L143.587 24.3356L143.587 24.3278V24.32H143.087ZM143.487 26.64L143.026 26.8348L143.031 26.8457L143.036 26.8564L143.487 26.64ZM144.847 28.48L144.502 28.8417L144.502 28.8419L144.847 28.48ZM149.407 30.16L149.4 30.66H149.407V30.16ZM152.847 29.36L153.062 29.8115L153.07 29.8072L152.847 29.36ZM155.207 27.2L154.781 26.9373L154.776 26.9465L154.77 26.9561L155.207 27.2ZM155.887 23.2L155.4 23.3124L155.404 23.3299L155.409 23.347L155.887 23.2ZM155.567 22.12L156.038 21.9518L156.033 21.9396L156.028 21.9277L155.567 22.12ZM154.447 20.32L154.827 19.9945L154.819 19.9855L154.447 20.32ZM153.487 19.52L153.191 19.9232L153.2 19.9298L153.21 19.936L153.487 19.52ZM152.047 18.52L152.324 18.104L152.317 18.0989L152.309 18.0942L152.047 18.52ZM150.647 17.72L150.384 18.1451L150.395 18.1524L150.407 18.1589L150.647 17.72ZM148.607 16.56L148.372 17.0012L148.607 16.56ZM145.527 14.48L145.125 14.7772L145.135 14.7909L145.146 14.8038L145.527 14.48ZM144.847 12.52H145.347V12.5124L145.347 12.5049L144.847 12.52ZM146.127 10L145.798 9.62364L145.791 9.63003L146.127 10ZM152.807 9.84L153.079 9.42074L153.074 9.41726L152.807 9.84ZM155.047 12.56L155.205 13.0343L155.7 12.8694L155.514 12.382L155.047 12.56ZM153.007 14.24L152.516 14.3336L152.766 15.6498L153.439 14.4911L153.007 14.24ZM152.527 12.8L152.968 12.5647L152.527 12.8ZM151.727 11.76L152.065 11.3913L152.056 11.3837L151.727 11.76ZM149.567 10.88L149.584 10.3803L149.575 10.38H149.567V10.88ZM147.927 11.4L148.252 11.7796L148.267 11.7671L148.28 11.7536L147.927 11.4ZM147.807 13.68L148.191 13.3599L148.176 13.3425L148.16 13.3264L147.807 13.68ZM150.207 15.24L149.969 15.6801L149.979 15.6852L150.207 15.24ZM155.127 18.08L154.825 18.4785L154.832 18.4842L154.84 18.4896L155.127 18.08ZM157.247 20.6L157.689 20.3671L157.685 20.3598L157.247 20.6ZM155.767 29.32L156.111 29.683L156.114 29.6798L155.767 29.32ZM149.847 31.52V32.02L149.852 32.02L149.847 31.52ZM144.327 29.52L143.984 29.884L143.994 29.893L144.327 29.52ZM142.167 24.64H141.667L141.667 24.6537L142.167 24.64ZM143.887 20.36L143.533 20.0064L143.887 20.36ZM151.007 19.4L151.246 18.9609L151.236 18.9554L151.007 19.4ZM153.047 21.36L152.614 21.6111L152.621 21.6213L153.047 21.36ZM153.807 23.84H153.307L153.307 23.8519L153.807 23.84ZM152.567 26.8L152.213 26.4464L152.567 26.8ZM146.887 27.04L147.24 26.6864L147.234 26.6796L147.227 26.6731L146.887 27.04ZM146.607 22.72L146.253 22.3664L146.241 22.3788L146.23 22.3919L146.607 22.72ZM150.207 22.4L150.573 22.0598L150.567 22.053L150.56 22.0464L150.207 22.4ZM150.767 23.68H151.267V23.6661L151.266 23.6523L150.767 23.68ZM150.287 24.84L150.596 25.2332L150.627 25.2085L150.654 25.1791L150.287 24.84ZM147.927 24.84L147.573 25.1936L147.927 24.84ZM147.92 22.0276C147.322 22.1331 146.83 22.469 146.447 22.98L147.247 23.58C147.504 23.2376 147.785 23.0668 148.094 23.0124L147.92 22.0276ZM146.456 22.9677C146.062 23.4602 145.867 24.0382 145.867 24.68H146.867C146.867 24.2552 146.991 23.8998 147.237 23.5923L146.456 22.9677ZM145.867 24.6622C145.834 25.5779 146.219 26.3892 146.941 27.081L147.633 26.359C147.075 25.8242 146.846 25.2754 146.867 24.6978L145.867 24.6622ZM146.959 27.0973C147.676 27.7214 148.572 28.02 149.607 28.02V27.02C148.775 27.02 148.124 26.7853 147.615 26.3427L146.959 27.0973ZM149.607 28.02C150.684 28.02 151.655 27.5998 152.508 26.8059L151.826 26.0741C151.132 26.7202 150.397 27.02 149.607 27.02V28.02ZM152.507 26.8069C153.335 26.0394 153.747 25.0499 153.747 23.88H152.747C152.747 24.7901 152.438 25.5073 151.827 26.0731L152.507 26.8069ZM153.747 23.88C153.747 22.5295 153.201 21.3268 152.16 20.2864L151.453 20.9936C152.333 21.8732 152.747 22.8305 152.747 23.88H153.747ZM152.15 20.2768C151.069 19.2536 149.758 18.74 148.247 18.74V19.74C149.509 19.74 150.572 20.1598 151.463 21.0032L152.15 20.2768ZM148.247 18.74C146.635 18.74 145.277 19.2629 144.213 20.3264L144.92 21.0336C145.777 20.1771 146.872 19.74 148.247 19.74V18.74ZM144.213 20.3264C143.13 21.4102 142.587 22.7521 142.587 24.32H143.587C143.587 23.0079 144.031 21.9231 144.92 21.0336L144.213 20.3264ZM142.587 24.3044C142.559 25.2202 142.701 26.0666 143.026 26.8348L143.947 26.4452C143.686 25.8267 143.562 25.1265 143.587 24.3356L142.587 24.3044ZM143.036 26.8564C143.385 27.5825 143.876 28.244 144.502 28.8417L145.192 28.1183C144.645 27.596 144.229 27.0309 143.938 26.4236L143.036 26.8564ZM144.502 28.8419C145.757 30.0386 147.407 30.6319 149.4 30.66L149.414 29.66C147.621 29.6348 146.23 29.108 145.192 28.1181L144.502 28.8419ZM149.407 30.66C150.659 30.66 151.879 30.3749 153.062 29.8114L152.632 28.9086C151.575 29.4118 150.502 29.66 149.407 29.66V30.66ZM153.07 29.8072C154.213 29.2359 155.081 28.4507 155.643 27.4439L154.77 26.9561C154.32 27.7627 153.614 28.4175 152.623 28.9128L153.07 29.8072ZM155.632 27.4627C156.24 26.4792 156.547 25.4152 156.547 24.28H155.547C155.547 25.2248 155.294 26.1075 154.781 26.9373L155.632 27.4627ZM156.547 24.28C156.547 23.8583 156.487 23.4487 156.365 23.053L155.409 23.347C155.501 23.6447 155.547 23.955 155.547 24.28H156.547ZM156.374 23.0876C156.289 22.72 156.177 22.3414 156.038 21.9518L155.096 22.2882C155.224 22.6453 155.324 22.9866 155.4 23.3124L156.374 23.0876ZM156.028 21.9277C155.74 21.2363 155.338 20.5919 154.827 19.9946L154.067 20.6454C154.515 21.1681 154.86 21.7237 155.105 22.3123L156.028 21.9277ZM154.819 19.9855C154.543 19.6794 154.188 19.3865 153.764 19.104L153.21 19.936C153.586 20.1868 153.871 20.4273 154.075 20.6545L154.819 19.9855ZM153.783 19.1168C153.375 18.8178 152.888 18.4801 152.324 18.104L151.77 18.936C152.325 19.3066 152.799 19.6355 153.191 19.9232L153.783 19.1168ZM152.309 18.0942C151.952 17.8743 151.476 17.603 150.886 17.2811L150.407 18.1589C150.991 18.477 151.449 18.739 151.785 18.9458L152.309 18.0942ZM150.91 17.2949C150.338 16.9409 149.648 16.5488 148.842 16.1188L148.372 17.0012C149.165 17.4245 149.835 17.8058 150.384 18.1451L150.91 17.2949ZM148.842 16.1188C147.236 15.2623 146.292 14.6077 145.908 14.1562L145.146 14.8038C145.669 15.4189 146.778 16.151 148.372 17.0012L148.842 16.1188ZM145.929 14.1828C145.533 13.6464 145.347 13.0956 145.347 12.52H144.347C144.347 13.3311 144.615 14.0869 145.125 14.7772L145.929 14.1828ZM145.347 12.5049C145.326 11.8175 145.651 11.108 146.463 10.37L145.791 9.63003C144.842 10.492 144.315 11.4625 144.347 12.5351L145.347 12.5049ZM146.456 10.3763C147.201 9.72462 148.183 9.38 149.447 9.38V8.38C147.991 8.38 146.76 8.78205 145.798 9.62371L146.456 10.3763ZM149.447 9.38C150.581 9.38 151.608 9.67445 152.54 10.2627L153.074 9.41726C151.979 8.72555 150.766 8.38 149.447 8.38V9.38ZM152.534 10.2592C153.518 10.8986 154.193 11.7233 154.58 12.738L155.514 12.382C155.047 11.1567 154.229 10.1681 153.079 9.42078L152.534 10.2592ZM154.889 12.0857C153.889 12.4188 153.114 13.0604 152.574 13.9889L153.439 14.4911C153.86 13.7662 154.444 13.2879 155.205 13.0343L154.889 12.0857ZM153.498 14.1464C153.384 13.5491 153.21 13.0189 152.968 12.5647L152.086 13.0353C152.27 13.3811 152.416 13.8109 152.516 14.3336L153.498 14.1464ZM152.968 12.5647C152.729 12.117 152.428 11.7247 152.065 11.3914L151.389 12.1286C151.665 12.382 151.898 12.683 152.086 13.0353L152.968 12.5647ZM152.056 11.3837C151.335 10.7528 150.506 10.411 149.584 10.3803L149.55 11.3797C150.227 11.4023 150.839 11.6472 151.398 12.1363L152.056 11.3837ZM149.567 10.38C148.756 10.38 148.053 10.5669 147.573 11.0464L148.28 11.7536C148.494 11.5398 148.885 11.38 149.567 11.38V10.38ZM147.601 11.0204C147.12 11.4327 146.867 11.97 146.867 12.6H147.867C147.867 12.27 147.987 12.0073 148.252 11.7796L147.601 11.0204ZM146.867 12.6C146.867 13.155 147.063 13.6435 147.453 14.0336L148.16 13.3264C147.964 13.1298 147.867 12.8983 147.867 12.6H146.867ZM147.423 14.0001C147.609 14.2232 147.932 14.4679 148.334 14.7292C148.75 14.9996 149.297 15.3168 149.969 15.68L150.444 14.8C149.784 14.4432 149.263 14.1404 148.879 13.8908C148.481 13.6321 148.272 13.4568 148.191 13.3599L147.423 14.0001ZM149.979 15.6852C152.38 16.9121 153.984 17.8414 154.825 18.4785L155.429 17.6815C154.51 16.9853 152.834 16.0212 150.434 14.7948L149.979 15.6852ZM154.84 18.4896C155.561 18.9941 156.221 19.7676 156.808 20.8402L157.685 20.3598C157.046 19.1924 156.293 18.2859 155.414 17.6704L154.84 18.4896ZM156.804 20.8329C157.296 21.7678 157.547 22.82 157.547 24H158.547C158.547 22.6734 158.264 21.4589 157.689 20.3671L156.804 20.8329ZM157.547 24C157.547 25.9419 156.844 27.5861 155.42 28.9602L156.114 29.6798C157.73 28.1206 158.547 26.2181 158.547 24H157.547ZM155.423 28.957C154.009 30.2966 152.163 30.9945 149.841 31.02L149.852 32.02C152.384 31.9922 154.485 31.2234 156.111 29.683L155.423 28.957ZM149.847 31.02C147.771 31.02 146.053 30.3907 144.66 29.147L143.994 29.893C145.588 31.3159 147.55 32.02 149.847 32.02V31.02ZM144.67 29.1561C143.382 27.9429 142.716 26.4433 142.667 24.6263L141.667 24.6537C141.724 26.73 142.498 28.4838 143.984 29.8839L144.67 29.1561ZM142.667 24.64C142.667 23.0582 143.193 21.7611 144.24 20.7136L143.533 20.0064C142.288 21.2522 141.667 22.8085 141.667 24.64H142.667ZM144.24 20.7136C145.261 19.6935 146.531 19.18 148.087 19.18V18.18C146.283 18.18 144.753 18.7865 143.533 20.0064L144.24 20.7136ZM148.087 19.18C149.018 19.18 149.913 19.3997 150.778 19.8446L151.236 18.9554C150.234 18.4403 149.183 18.18 148.087 18.18V19.18ZM150.767 19.8389C151.571 20.2774 152.183 20.8674 152.614 21.6111L153.479 21.1089C152.951 20.1992 152.203 19.4826 151.246 18.9611L150.767 19.8389ZM152.621 21.6213C153.087 22.3831 153.307 23.1205 153.307 23.84H154.307C154.307 22.9062 154.02 21.9902 153.473 21.0987L152.621 21.6213ZM153.307 23.8519C153.33 24.8239 152.978 25.6815 152.213 26.4464L152.92 27.1536C153.862 26.2118 154.337 25.0961 154.307 23.8281L153.307 23.8519ZM152.213 26.4464C151.481 27.179 150.608 27.54 149.567 27.54V28.54C150.872 28.54 152 28.0744 152.92 27.1536L152.213 26.4464ZM149.567 27.54C148.553 27.54 147.796 27.242 147.24 26.6864L146.533 27.3936C147.311 28.1714 148.341 28.54 149.567 28.54V27.54ZM147.227 26.6731C146.596 26.089 146.307 25.4439 146.307 24.72H145.307C145.307 25.7561 145.738 26.6576 146.547 27.4069L147.227 26.6731ZM146.307 24.72C146.307 24.1362 146.519 23.583 146.984 23.0481L146.23 22.3919C145.628 23.0837 145.307 23.8638 145.307 24.72H146.307ZM146.96 23.0736C147.422 22.6118 147.986 22.38 148.687 22.38V21.38C147.734 21.38 146.912 21.7082 146.253 22.3664L146.96 23.0736ZM148.687 22.38C149.27 22.38 149.63 22.5304 149.853 22.7536L150.56 22.0464C150.09 21.5763 149.437 21.38 148.687 21.38V22.38ZM149.84 22.7402C150.113 23.0336 150.248 23.3515 150.268 23.7077L151.266 23.6523C151.233 23.0485 150.994 22.5131 150.573 22.0598L149.84 22.7402ZM150.267 23.68C150.267 23.9673 150.164 24.236 149.919 24.5009L150.654 25.1791C151.05 24.7507 151.267 24.2461 151.267 23.68H150.267ZM149.978 24.4468C149.676 24.6844 149.395 24.78 149.127 24.78V25.78C149.659 25.78 150.151 25.5823 150.596 25.2332L149.978 24.4468ZM149.127 24.78C148.722 24.78 148.46 24.666 148.28 24.4864L147.573 25.1936C147.98 25.6007 148.519 25.78 149.127 25.78V24.78ZM148.28 24.4864C148.048 24.2539 147.947 24.0054 147.947 23.72H146.947C146.947 24.2879 147.166 24.7861 147.573 25.1936L148.28 24.4864ZM147.947 23.72C147.947 23.39 148.067 23.1273 148.332 22.8996L147.681 22.1404C147.2 22.5527 146.947 23.09 146.947 23.72H147.947Z" fill="#F1F1F1"/>
</svg>
