<svg width="69" height="69" viewBox="0 0 69 69" fill="none" xmlns="http://www.w3.org/2000/svg">
<path fill-rule="evenodd" clip-rule="evenodd" d="M32.3796 69C14.8992 68.0922 0.907839 54.1008 0 36.6204H2.20729C3.09733 52.8725 16.1275 65.8849 32.3796 66.7927V69Z" fill="#FF6900"/>
<path fill-rule="evenodd" clip-rule="evenodd" d="M68.5046 36.6204C67.5967 54.1008 53.6053 68.0922 36.125 69V66.7927C52.3771 65.8849 65.4072 52.8725 66.2973 36.6204H68.5046Z" fill="#81C28F"/>
<path fill-rule="evenodd" clip-rule="evenodd" d="M36.125 0.495419C53.6053 1.40326 67.5967 15.3947 68.5046 32.875H66.2973C65.4072 16.6229 52.3771 3.59275 36.125 2.70271V0.495419Z" fill="#FFDCB1"/>
<path fill-rule="evenodd" clip-rule="evenodd" d="M0 32.875C0.907839 15.3947 14.8992 1.40326 32.3796 0.495419V2.70271C16.1275 3.61055 3.09733 16.6229 2.20729 32.875H0Z" fill="#FF4B55"/>
</svg>
